<?xml version="1.0" encoding="UTF-8"?>
<svg version="1.1" xmlns="http://www.w3.org/2000/svg" width="416" height="416">
<path d="M0 0 C3.52094999 0.02685884 7.03871394 0.00002076 10.55957031 -0.03173828 C61.14703927 -0.10831083 108.71014043 20.27884688 145.52050781 54.65185547 C147.24884623 56.17362999 148.97802007 57.69445619 150.70800781 59.21435547 C155.02106811 63.11282703 158.83752531 67.16023409 162.52050781 71.65185547 C163.15013428 72.39701416 163.15013428 72.39701416 163.79248047 73.15722656 C172.41268453 83.3665465 179.70903235 94.16455713 186.52050781 105.65185547 C187.09260986 106.60995117 187.09260986 106.60995117 187.67626953 107.58740234 C196.03937301 121.79195431 202.1451454 137.56454063 206.39550781 153.46435547 C206.57428467 154.13047852 206.75306152 154.79660156 206.93725586 155.48291016 C207.5286987 157.86219377 208.03008019 160.24955925 208.52050781 162.65185547 C208.77799805 163.84480225 209.03548828 165.03774902 209.30078125 166.2668457 C211.84335684 178.94953798 212.04577778 191.54999163 212.02148438 204.45239258 C212.0205176 208.05291218 212.06217135 211.65125365 212.10644531 215.25146484 C212.3328765 259.444196 197.18956979 302.10409115 169.52050781 336.65185547 C168.88532227 337.45550537 168.25013672 338.25915527 167.59570312 339.0871582 C162.17576004 345.8477549 156.41511164 352.10877039 150.27050781 358.21435547 C149.34737793 359.1325708 148.42424805 360.05078613 147.47314453 360.99682617 C140.84954517 367.50734535 134.19325048 373.39082406 126.52050781 378.65185547 C125.9576709 379.04840332 125.39483398 379.44495117 124.81494141 379.85351562 C102.1496446 395.81420532 76.83304419 408.1661076 49.52050781 413.65185547 C48.3369873 413.90789551 47.1534668 414.16393555 45.93408203 414.42773438 C33.08818313 417.01372864 20.30660443 417.17692201 7.23779297 417.15283203 C3.55388011 417.15186424 -0.12791152 417.19353652 -3.81152344 417.23779297 C-53.02511205 417.48504889 -100.38128037 398.12972584 -136.37792969 364.60107422 C-138.25876886 362.85657841 -140.1856725 361.21717979 -142.16699219 359.58935547 C-145.30680496 356.917953 -147.95612951 353.96355681 -150.61621094 350.81982422 C-151.87573819 349.35433654 -153.17168346 347.91949836 -154.49902344 346.51513672 C-171.20117858 328.78978648 -183.28394398 307.0510446 -192.47949219 284.65185547 C-192.96893311 283.47163818 -192.96893311 283.47163818 -193.46826172 282.26757812 C-195.8145684 276.48900119 -197.76337051 270.646984 -199.47949219 264.65185547 C-199.73778809 263.75917969 -199.99608398 262.86650391 -200.26220703 261.94677734 C-205.00126051 244.42719363 -205.00464892 226.61471049 -205.10449219 208.58935547 C-205.11761444 207.41304565 -205.13073669 206.23673584 -205.14425659 205.02478027 C-205.58592864 153.91536256 -186.75548801 104.27775658 -151.03808594 67.35107422 C-148.47745858 64.72717467 -148.47745858 64.72717467 -146.37011719 62.00341797 C-144.63046938 59.83964114 -142.90636103 58.12570902 -140.79199219 56.33935547 C-138.69027245 54.5515538 -136.6055381 52.77007244 -134.59277344 50.88232422 C-122.40406909 39.50779658 -108.28754825 30.22814724 -93.47949219 22.65185547 C-92.68704102 22.24338379 -91.89458984 21.83491211 -91.078125 21.4140625 C-62.11608542 6.64219179 -32.57145063 -0.29380298 0 0 Z " fill="#010101" transform="translate(204.4794921875,-0.65185546875)"/>
<path d="M0 0 C3.52094999 0.02685884 7.03871394 0.00002076 10.55957031 -0.03173828 C61.14703927 -0.10831083 108.71014043 20.27884688 145.52050781 54.65185547 C147.24884623 56.17362999 148.97802007 57.69445619 150.70800781 59.21435547 C155.02106811 63.11282703 158.83752531 67.16023409 162.52050781 71.65185547 C163.15013428 72.39701416 163.15013428 72.39701416 163.79248047 73.15722656 C172.41268453 83.3665465 179.70903235 94.16455713 186.52050781 105.65185547 C187.09260986 106.60995117 187.09260986 106.60995117 187.67626953 107.58740234 C196.03937301 121.79195431 202.1451454 137.56454063 206.39550781 153.46435547 C206.57428467 154.13047852 206.75306152 154.79660156 206.93725586 155.48291016 C207.5286987 157.86219377 208.03008019 160.24955925 208.52050781 162.65185547 C208.77799805 163.84480225 209.03548828 165.03774902 209.30078125 166.2668457 C211.84335684 178.94953798 212.04577778 191.54999163 212.02148438 204.45239258 C212.0205176 208.05291218 212.06217135 211.65125365 212.10644531 215.25146484 C212.3328765 259.444196 197.18956979 302.10409115 169.52050781 336.65185547 C168.88532227 337.45550537 168.25013672 338.25915527 167.59570312 339.0871582 C162.17576004 345.8477549 156.41511164 352.10877039 150.27050781 358.21435547 C149.34737793 359.1325708 148.42424805 360.05078613 147.47314453 360.99682617 C140.84954517 367.50734535 134.19325048 373.39082406 126.52050781 378.65185547 C125.9576709 379.04840332 125.39483398 379.44495117 124.81494141 379.85351562 C102.1496446 395.81420532 76.83304419 408.1661076 49.52050781 413.65185547 C48.3369873 413.90789551 47.1534668 414.16393555 45.93408203 414.42773438 C33.08818313 417.01372864 20.30660443 417.17692201 7.23779297 417.15283203 C3.55388011 417.15186424 -0.12791152 417.19353652 -3.81152344 417.23779297 C-53.02511205 417.48504889 -100.38128037 398.12972584 -136.37792969 364.60107422 C-138.25876886 362.85657841 -140.1856725 361.21717979 -142.16699219 359.58935547 C-145.30680496 356.917953 -147.95612951 353.96355681 -150.61621094 350.81982422 C-151.87573819 349.35433654 -153.17168346 347.91949836 -154.49902344 346.51513672 C-171.20117858 328.78978648 -183.28394398 307.0510446 -192.47949219 284.65185547 C-192.96893311 283.47163818 -192.96893311 283.47163818 -193.46826172 282.26757812 C-195.8145684 276.48900119 -197.76337051 270.646984 -199.47949219 264.65185547 C-199.73778809 263.75917969 -199.99608398 262.86650391 -200.26220703 261.94677734 C-205.00126051 244.42719363 -205.00464892 226.61471049 -205.10449219 208.58935547 C-205.11761444 207.41304565 -205.13073669 206.23673584 -205.14425659 205.02478027 C-205.58592864 153.91536256 -186.75548801 104.27775658 -151.03808594 67.35107422 C-148.47745858 64.72717467 -148.47745858 64.72717467 -146.37011719 62.00341797 C-144.63046938 59.83964114 -142.90636103 58.12570902 -140.79199219 56.33935547 C-138.69027245 54.5515538 -136.6055381 52.77007244 -134.59277344 50.88232422 C-122.40406909 39.50779658 -108.28754825 30.22814724 -93.47949219 22.65185547 C-92.68704102 22.24338379 -91.89458984 21.83491211 -91.078125 21.4140625 C-62.11608542 6.64219179 -32.57145063 -0.29380298 0 0 Z M-115.56542969 56.36669922 C-117.99955759 58.27549925 -120.46674678 60.09964294 -122.97949219 61.90185547 C-126.42506877 64.46617347 -128.82477799 67.27965095 -131.47949219 70.65185547 C-133.90280292 73.12767126 -136.36983683 75.54702996 -138.87402344 77.94091797 C-144.87511659 83.73841991 -149.81708528 89.74426738 -154.47949219 96.65185547 C-154.88780273 97.23757324 -155.29611328 97.82329102 -155.71679688 98.42675781 C-164.11387509 110.49327829 -170.47100503 123.25865022 -176.47949219 136.65185547 C-177.00414062 137.77591797 -177.52878906 138.89998047 -178.06933594 140.05810547 C-186.70344585 160.1399969 -189.91120368 184.46842772 -189.79199219 206.15185547 C-189.79016937 206.84639832 -189.78834656 207.54094116 -189.78646851 208.25653076 C-189.73236858 220.58532283 -188.77300335 232.52933906 -186.47949219 244.65185547 C-186.24601074 245.96742432 -186.24601074 245.96742432 -186.0078125 247.30957031 C-180.82218785 275.9029597 -168.15623314 302.67794546 -150.47949219 325.65185547 C-149.84527344 326.50908203 -149.21105469 327.36630859 -148.55761719 328.24951172 C-137.39334447 342.69608062 -123.54562582 356.34057175 -108.47949219 366.65185547 C-107.8770166 367.07692383 -107.27454102 367.50199219 -106.65380859 367.93994141 C-81.15439752 385.85705597 -53.03954398 395.73061061 -22.47949219 400.65185547 C-21.21621094 400.85552734 -19.95292969 401.05919922 -18.65136719 401.26904297 C31.22671528 406.99845616 82.77477827 392.52608691 122.11425781 361.45654297 C126.07182405 358.24046705 129.88579136 354.88689021 133.60253906 351.39404297 C135.52050781 349.65185547 135.52050781 349.65185547 138.52050781 347.65185547 C138.52050781 346.99185547 138.52050781 346.33185547 138.52050781 345.65185547 C139.18050781 345.65185547 139.84050781 345.65185547 140.52050781 345.65185547 C142.05727298 344.17138755 142.05727298 344.17138755 143.64550781 342.21435547 C145.50935894 340.00988268 147.36230137 337.82060901 149.33691406 335.71435547 C184.04900224 298.61082906 197.93193034 248.21966864 196.87597656 198.46435547 C196.50935822 187.64315851 194.84165048 177.20917921 192.52050781 166.65185547 C192.3603418 165.89001953 192.20017578 165.12818359 192.03515625 164.34326172 C187.45561456 142.83594493 178.26802072 120.60541372 165.52050781 102.65185547 C164.88145508 101.70004395 164.88145508 101.70004395 164.22949219 100.72900391 C149.84627285 79.32934266 131.15599611 60.70278948 109.52050781 46.65185547 C108.8020166 46.18505371 108.08352539 45.71825195 107.34326172 45.23730469 C92.75600649 35.92494958 76.95860538 28.99814275 60.52050781 23.65185547 C59.58843506 23.33829102 58.6563623 23.02472656 57.69604492 22.70166016 C-0.74518006 3.70859331 -68.06906042 18.88737159 -115.56542969 56.36669922 Z " fill="#F7F7F7" transform="translate(204.4794921875,-0.65185546875)"/>
<path d="M0 0 C1.06541016 -0.03456299 1.06541016 -0.03456299 2.15234375 -0.06982422 C6.03965638 -0.01129155 7.75967924 0.53344416 10.83203125 2.97265625 C12.875 5.625 12.875 5.625 13.4375 8.6875 C12.75678485 12.24234581 11.67427541 13.402046 8.875 15.625 C6.43130837 16.84684582 4.4072808 16.68896645 1.71972656 16.7121582 C-9.68986092 16.91827546 -18.98140468 20.3163318 -27.125 28.625 C-27.785 28.625 -28.445 28.625 -29.125 28.625 C-29.40142334 29.34212158 -29.67784668 30.05924316 -29.96264648 30.7980957 C-31.125 33.625 -31.125 33.625 -32.39868164 36.06713867 C-37.36673245 46.53000208 -36.78034761 57.16959837 -36.61206055 68.52856445 C-36.56235974 71.94714741 -36.55055193 75.36429004 -36.54492188 78.78320312 C-36.53084324 80.97657771 -36.5146415 83.16993991 -36.49609375 85.36328125 C-36.49073105 86.37489822 -36.48536835 87.3865152 -36.47984314 88.42878723 C-36.35098311 96.15417917 -35.31900222 102.8449893 -31.75 109.8125 C-31.35039062 110.61042969 -30.95078125 111.40835938 -30.5390625 112.23046875 C-27.51029791 117.35928835 -24.44087182 120.37364763 -19.25 123.3125 C-18.24195313 123.89386719 -17.23390625 124.47523438 -16.1953125 125.07421875 C-10.58361953 127.90862347 -5.94787746 128.87993918 0.34228516 128.93139648 C1.42659317 128.94388176 1.42659317 128.94388176 2.5328064 128.95661926 C4.90994754 128.98060564 7.28681336 128.98947931 9.6640625 128.99609375 C11.33067907 129.00507195 12.99729487 129.014194 14.66390991 129.02345276 C18.15567983 129.03991679 21.64735421 129.04763757 25.13916016 129.05053711 C29.58409393 129.05590416 34.02811171 129.0935251 38.47278786 129.13928127 C41.91664794 129.16923203 45.36029278 129.17626462 48.8042717 129.17726326 C50.44113718 129.18143349 52.07800523 129.19373722 53.71474075 129.21478081 C67.48084764 129.37762118 78.43865034 127.07196175 88.67578125 117.23046875 C94.73323714 110.05405121 97.94524909 101.89507309 98.05200195 92.55029297 C98.06483719 91.56511688 98.07767242 90.5799408 98.09089661 89.56491089 C98.09828354 88.50966217 98.10567047 87.45441345 98.11328125 86.3671875 C98.12538887 84.71893478 98.12538887 84.71893478 98.13774109 83.03738403 C98.15155589 80.71243861 98.16228965 78.38747313 98.17016602 76.0625 C98.18167003 73.69818123 98.20209656 71.33388811 98.23168945 68.96972656 C98.2746028 65.53953538 98.2905695 62.11011465 98.30078125 58.6796875 C98.32704338 57.1150325 98.32704338 57.1150325 98.35383606 55.51876831 C98.32281965 44.87357257 95.27944473 35.4417572 87.875 27.625 C79.07208877 19.28641815 69.0495234 17.1922194 57.2578125 17.09375 C53.26337585 16.54024839 51.62242607 15.54189347 48.875 12.625 C48.24609375 10.625 48.24609375 10.625 48.3125 8.625 C48.31121094 7.965 48.30992187 7.305 48.30859375 6.625 C49.16097721 3.61520461 50.35101838 2.46540327 52.875 0.625 C55.56398753 0.24428493 57.76319612 0.1002808 60.4375 0.1875 C61.15131836 0.20216309 61.86513672 0.21682617 62.60058594 0.23193359 C78.25296054 0.785158 91.91087632 7.78412143 102.57226562 19.12207031 C112.21695099 30.24888499 114.34542962 42.99928742 114.2734375 57.25390625 C114.27774277 59.15933449 114.27774277 59.15933449 114.28213501 61.10325623 C114.28416562 63.77350349 114.28024657 66.44291131 114.26611328 69.11303711 C114.24900554 72.50749898 114.25889517 75.90124974 114.27683067 79.29568577 C114.29037467 82.57345016 114.28084913 85.85113252 114.2734375 89.12890625 C114.27951019 90.33333878 114.28558289 91.5377713 114.2918396 92.77870178 C114.17521127 106.89973435 109.57272088 119.33207536 99.8515625 129.78125 C89.46800458 139.4670985 76.99676706 144.96549173 62.76586914 144.88378906 C61.61537331 144.88904602 61.61537331 144.88904602 60.44163513 144.89440918 C57.93104738 144.90314057 55.42074638 144.8974074 52.91015625 144.890625 C51.1495305 144.89197426 49.38890512 144.89391696 47.62828064 144.89642334 C43.94754471 144.89936309 40.2669062 144.89511455 36.58618164 144.88574219 C31.88797515 144.87435679 27.18999744 144.88090867 22.49179935 144.89288712 C18.85849817 144.900144 15.22525043 144.89780012 11.59194756 144.89263153 C9.86053884 144.89130517 8.12912514 144.8929069 6.39772224 144.89759064 C-5.39917514 144.92250203 -15.64137602 144.63618098 -26.125 138.625 C-27.16309814 138.03223267 -27.16309814 138.03223267 -28.22216797 137.42749023 C-34.36259495 133.75979088 -38.92125645 129.43658563 -43.125 123.625 C-43.99898437 122.42037109 -43.99898437 122.42037109 -44.890625 121.19140625 C-51.6119145 110.99527534 -52.58159906 100.02329211 -52.48828125 88.08203125 C-52.48877975 86.83298508 -52.48927826 85.5839389 -52.48979187 84.29704285 C-52.48746664 81.67595821 -52.47783082 79.05487068 -52.46118164 76.43383789 C-52.44535942 73.7637967 -52.43604117 71.09500237 -52.44067383 68.42504883 C-52.44711234 64.53976314 -52.4391412 60.65479485 -52.42578125 56.76953125 C-52.42669266 55.58494827 -52.42760406 54.4003653 -52.42854309 53.17988586 C-52.29169811 37.07504557 -47.10074671 25.6923716 -35.90234375 14.2890625 C-25.95207789 4.74464433 -13.68787557 0.25798206 0 0 Z " fill="#F9F9F9" transform="translate(177.125,135.375)"/>
<path d="M0 0 C3.52094999 0.02685884 7.03871394 0.00002076 10.55957031 -0.03173828 C61.14703927 -0.10831083 108.71014043 20.27884688 145.52050781 54.65185547 C147.24884623 56.17362999 148.97802007 57.69445619 150.70800781 59.21435547 C155.02106811 63.11282703 158.83752531 67.16023409 162.52050781 71.65185547 C163.15013428 72.39701416 163.15013428 72.39701416 163.79248047 73.15722656 C172.41268453 83.3665465 179.70903235 94.16455713 186.52050781 105.65185547 C187.09260986 106.60995117 187.09260986 106.60995117 187.67626953 107.58740234 C196.03937301 121.79195431 202.1451454 137.56454063 206.39550781 153.46435547 C206.57428467 154.13047852 206.75306152 154.79660156 206.93725586 155.48291016 C207.5286987 157.86219377 208.03008019 160.24955925 208.52050781 162.65185547 C208.77799805 163.84480225 209.03548828 165.03774902 209.30078125 166.2668457 C211.84335684 178.94953798 212.04577778 191.54999163 212.02148438 204.45239258 C212.0205176 208.05291218 212.06217135 211.65125365 212.10644531 215.25146484 C212.3328765 259.444196 197.18956979 302.10409115 169.52050781 336.65185547 C168.88532227 337.45550537 168.25013672 338.25915527 167.59570312 339.0871582 C162.17576004 345.8477549 156.41511164 352.10877039 150.27050781 358.21435547 C149.34737793 359.1325708 148.42424805 360.05078613 147.47314453 360.99682617 C140.84954517 367.50734535 134.19325048 373.39082406 126.52050781 378.65185547 C125.9576709 379.04840332 125.39483398 379.44495117 124.81494141 379.85351562 C102.1496446 395.81420532 76.83304419 408.1661076 49.52050781 413.65185547 C48.3369873 413.90789551 47.1534668 414.16393555 45.93408203 414.42773438 C33.08818313 417.01372864 20.30660443 417.17692201 7.23779297 417.15283203 C3.55388011 417.15186424 -0.12791152 417.19353652 -3.81152344 417.23779297 C-53.02511205 417.48504889 -100.38128037 398.12972584 -136.37792969 364.60107422 C-138.25876886 362.85657841 -140.1856725 361.21717979 -142.16699219 359.58935547 C-145.30680496 356.917953 -147.95612951 353.96355681 -150.61621094 350.81982422 C-151.87573819 349.35433654 -153.17168346 347.91949836 -154.49902344 346.51513672 C-171.20117858 328.78978648 -183.28394398 307.0510446 -192.47949219 284.65185547 C-192.96893311 283.47163818 -192.96893311 283.47163818 -193.46826172 282.26757812 C-195.8145684 276.48900119 -197.76337051 270.646984 -199.47949219 264.65185547 C-199.73778809 263.75917969 -199.99608398 262.86650391 -200.26220703 261.94677734 C-205.00126051 244.42719363 -205.00464892 226.61471049 -205.10449219 208.58935547 C-205.11761444 207.41304565 -205.13073669 206.23673584 -205.14425659 205.02478027 C-205.58592864 153.91536256 -186.75548801 104.27775658 -151.03808594 67.35107422 C-148.47745858 64.72717467 -148.47745858 64.72717467 -146.37011719 62.00341797 C-144.63046938 59.83964114 -142.90636103 58.12570902 -140.79199219 56.33935547 C-138.69027245 54.5515538 -136.6055381 52.77007244 -134.59277344 50.88232422 C-122.40406909 39.50779658 -108.28754825 30.22814724 -93.47949219 22.65185547 C-92.68704102 22.24338379 -91.89458984 21.83491211 -91.078125 21.4140625 C-62.11608542 6.64219179 -32.57145063 -0.29380298 0 0 Z M-37.16699219 4.83935547 C-38.29548584 5.05930176 -39.42397949 5.27924805 -40.58666992 5.50585938 C-50.20551996 7.45877949 -59.33000734 10.12393057 -68.47949219 13.65185547 C-69.19395508 13.92255859 -69.90841797 14.19326172 -70.64453125 14.47216797 C-95.12969013 23.83317556 -116.69184288 37.75430524 -136.03417969 55.42919922 C-138.3810088 57.56233942 -140.76983804 59.6381762 -143.16699219 61.71435547 C-147.32259497 65.41065479 -150.94683953 69.36334245 -154.47949219 73.65185547 C-155.09308594 74.37759766 -155.70667969 75.10333984 -156.33886719 75.85107422 C-162.30095217 83.06519705 -167.42680091 90.78838069 -172.47949219 98.65185547 C-173.03636719 99.51681641 -173.59324219 100.38177734 -174.16699219 101.27294922 C-201.36091152 145.09358553 -211.07513673 200.45663122 -200.22949219 251.02685547 C-199.66043868 253.23891152 -199.07530583 255.44685661 -198.47949219 257.65185547 C-198.09909918 259.19217446 -197.71890674 260.73254299 -197.33886719 262.27294922 C-189.1411375 294.24470861 -172.15870915 323.0394303 -150.47949219 347.65185547 C-150.04072754 348.15378418 -149.60196289 348.65571289 -149.14990234 349.17285156 C-143.92539467 355.1311713 -138.57265528 360.59441991 -132.47949219 365.65185547 C-131.63257813 366.39822266 -130.78566406 367.14458984 -129.91308594 367.91357422 C-121.65450191 375.07101371 -112.80220347 380.96944097 -103.47949219 386.65185547 C-102.79709473 387.07466797 -102.11469727 387.49748047 -101.41162109 387.93310547 C-83.67282306 398.81528207 -63.24230713 407.60192572 -42.68408203 411.24707031 C-40.21387656 411.7006252 -37.76616563 412.23393156 -35.31152344 412.76513672 C15.36188313 423.10664826 71.90246395 411.97783453 115.18408203 383.93261719 C122.23128342 379.18858104 129.08545747 374.20523521 135.52050781 368.65185547 C136.26558594 368.01634766 137.01066406 367.38083984 137.77832031 366.72607422 C168.73222158 339.60310133 190.79745606 306.55626436 202.78637695 267.05029297 C203.2698347 265.47081543 203.77380259 263.89744822 204.29956055 262.33154297 C206.68019789 255.03002258 207.7658603 247.63093836 208.70800781 240.02685547 C208.79455627 239.34076202 208.88110474 238.65466858 208.97027588 237.94778442 C210.30087982 227.15753936 210.90283881 216.4591125 210.89550781 205.58935547 C210.89780396 203.67678955 210.89780396 203.67678955 210.90014648 201.72558594 C210.79697465 192.91044628 209.85657067 184.35980422 208.52050781 175.65185547 C208.40030273 174.82177979 208.28009766 173.9917041 208.15625 173.13647461 C206.59812393 162.6044704 204.01958718 152.69193985 200.52050781 142.65185547 C200.29492188 141.99330566 200.06933594 141.33475586 199.83691406 140.65625 C196.44553926 130.84377644 192.27090682 121.596084 187.44042969 112.41064453 C186.64155374 110.88328191 185.86779069 109.34283487 185.09863281 107.80029297 C178.61137349 95.16921746 169.63392529 83.49265273 160.52050781 72.65185547 C159.93914062 71.94802734 159.35777344 71.24419922 158.75878906 70.51904297 C155.35271331 66.49298489 151.76688548 62.95326797 147.70800781 59.58544922 C145.80153211 57.90026088 144.05170382 56.16083842 142.27832031 54.33935547 C138.56975049 50.60463421 134.59144335 47.38297039 130.39550781 44.21435547 C129.64688477 43.64797363 128.89826172 43.0815918 128.12695312 42.49804688 C80.95642632 7.22593787 20.71216813 -6.4577845 -37.16699219 4.83935547 Z " fill="#181818" transform="translate(204.4794921875,-0.65185546875)"/>
<path d="M0 0 C1.86751923 -0.01268921 1.86751923 -0.01268921 3.77276611 -0.02563477 C5.14978158 -0.01980204 6.52679576 -0.01365754 7.90380859 -0.00723267 C9.35602208 -0.01129838 10.80823248 -0.01664027 12.26043701 -0.02316284 C16.20256887 -0.03684236 20.14446526 -0.03153525 24.08660126 -0.02202559 C28.21138648 -0.01443226 32.33615149 -0.02147369 36.4609375 -0.02618408 C43.38789491 -0.03164259 50.31475637 -0.02444754 57.24169922 -0.01016235 C65.25110628 0.00616438 73.26028424 0.00087594 81.26968575 -0.01564157 C88.14537581 -0.02925374 95.0209969 -0.03117742 101.89669609 -0.02332556 C106.00369904 -0.01864755 110.11059429 -0.01802767 114.21759033 -0.02793503 C118.07869445 -0.03659854 121.93950308 -0.03059426 125.80057526 -0.01325226 C127.21794392 -0.00928409 128.63533744 -0.01042713 130.05269623 -0.01704025 C131.98661921 -0.02523191 133.9205965 -0.01314022 135.85449219 0 C136.93701263 0.00113108 138.01953308 0.00226215 139.13485718 0.00342751 C142.28264511 0.42899991 143.66210905 1.1901194 145.92724609 3.38095093 C146.62017603 6.08719697 146.41364801 8.63993306 145.92724609 11.38095093 C144.38386518 13.55571494 143.29059336 14.19927729 140.92724609 15.38095093 C138.99790788 15.48327847 137.06499979 15.52045566 135.13296509 15.52812195 C133.89911575 15.53527725 132.66526642 15.54243256 131.39402771 15.54980469 C130.01919581 15.55264505 128.64436364 15.55535677 127.26953125 15.55795288 C125.8274672 15.56421653 124.38540477 15.57086324 122.94334412 15.5778656 C119.01977101 15.59528256 115.09621009 15.6058289 111.1726079 15.61407113 C108.72256667 15.61921903 106.27252924 15.6252948 103.82249069 15.63158226 C96.1605112 15.65063491 88.49854136 15.66486679 80.83654273 15.67319423 C71.98503075 15.6829728 63.13376843 15.70930801 54.28234446 15.74969512 C47.44492872 15.77982496 40.60758467 15.79466005 33.77010381 15.79797524 C29.68423544 15.80032901 25.59863376 15.80933169 21.51283646 15.83443642 C17.66979463 15.85766816 13.82719602 15.86197045 9.98410225 15.85167503 C8.57316555 15.85117838 7.16220738 15.85753684 5.75133705 15.87123108 C3.82613681 15.88887297 1.90074525 15.87948369 -0.02450562 15.86869812 C-1.10224936 15.87108647 -2.1799931 15.87347483 -3.29039574 15.87593555 C-6.74946706 15.2605629 -7.92383035 14.10310525 -10.07275391 11.38095093 C-10.84520358 8.42178711 -10.47055533 6.51363715 -10.07275391 3.38095093 C-6.96983204 0.14543337 -4.36023364 0.00455581 0 0 Z " fill="#FDFDFD" transform="translate(140.07275390625,83.61904907226563)"/>
<path d="M0 0 C1.14404297 -0.0112793 2.28808594 -0.02255859 3.46679688 -0.03417969 C5.34334961 -0.0220343 5.34334961 -0.0220343 7.2578125 -0.00964355 C8.59180465 -0.01506511 9.9257908 -0.02218797 11.25976562 -0.03088379 C14.87966598 -0.04911656 18.49911024 -0.04205017 22.11901855 -0.02936745 C25.9074832 -0.01923938 29.69590882 -0.02863258 33.484375 -0.03491211 C39.84642548 -0.04218911 46.20829022 -0.03259956 52.5703125 -0.0135498 C59.92541387 0.00821921 67.28007173 0.00116786 74.63516235 -0.02085543 C80.95036617 -0.03900805 87.26543648 -0.04156848 93.58065796 -0.03110075 C97.35234853 -0.02486499 101.12383064 -0.02403225 104.89550781 -0.0372467 C108.44153603 -0.04880278 111.98699253 -0.04078487 115.53295898 -0.01766968 C117.45490737 -0.00985857 119.37690412 -0.02174065 121.29882812 -0.03417969 C123.01489258 -0.01726074 123.01489258 -0.01726074 124.765625 0 C125.75965332 0.0015081 126.75368164 0.0030162 127.77783203 0.00457001 C131.13364995 0.6530201 132.32166968 1.82504399 134.3828125 4.50793457 C134.8828125 8.00793457 134.8828125 8.00793457 134.3828125 11.50793457 C132.51572745 13.87290896 131.06219819 15.16824172 128.3828125 16.50793457 C126.64566758 16.60747542 124.90470486 16.64301329 123.16471863 16.64837646 C122.05852676 16.65408661 120.9523349 16.65979675 119.81262207 16.66567993 C117.98374451 16.66735672 117.98374451 16.66735672 116.11791992 16.66906738 C114.19832207 16.67651474 114.19832207 16.67651474 112.23994446 16.68411255 C108.72331092 16.69724495 105.20669649 16.70368327 101.69004226 16.70812321 C99.49326746 16.71105292 97.29649789 16.71515756 95.09972572 16.71962738 C88.22743255 16.73330527 81.35515133 16.74297018 74.48284549 16.74682927 C66.54827941 16.75130921 58.61388568 16.7688528 50.67937201 16.79782987 C44.54766588 16.81944598 38.41600822 16.82953353 32.28426439 16.83087039 C28.62150694 16.83191859 24.95891143 16.83782918 21.29619408 16.85569 C17.20931927 16.8752309 13.12280501 16.87088202 9.03588867 16.86437988 C7.82270966 16.87359467 6.60953064 16.88280945 5.35958862 16.89230347 C4.24493729 16.88673431 3.13028595 16.88116516 1.9818573 16.87542725 C1.01565051 16.87689381 0.04944372 16.87836037 -0.94604206 16.87987137 C-4.13481904 16.43585829 -6.02358396 15.38586587 -8.6171875 13.50793457 C-10.16305626 10.41619706 -9.91078271 7.91363905 -9.6171875 4.50793457 C-6.71858922 0.69489565 -4.71153432 0.00714816 0 0 Z " fill="#F8F8F8" transform="translate(145.6171875,316.4920654296875)"/>
<path d="M0 0 C0.66 0.00128906 1.32 0.00257812 2 0.00390625 C4.89434642 0.63139151 5.9649501 1.21087865 8 3.4375 C8.63133699 6.69965018 8.54565922 9.9480103 8.51757812 13.26147461 C8.5245874 14.26985886 8.53159668 15.2782431 8.53881836 16.31718445 C8.5564572 19.65834909 8.54475342 22.99867013 8.53125 26.33984375 C8.53394342 28.6576809 8.53782458 30.97551695 8.54284668 33.29335022 C8.54874991 38.15490459 8.54015274 43.01616527 8.52148438 47.87768555 C8.49870744 54.11358265 8.51180531 60.3487907 8.53577423 66.58466244 C8.55022056 71.37245383 8.54563126 76.16008159 8.53526306 80.94787788 C8.53259191 83.24721928 8.53587911 85.54657546 8.54518127 87.84589958 C8.55532589 91.05904419 8.53987336 94.27106972 8.51757812 97.48413086 C8.52567505 98.43751343 8.53377197 99.390896 8.54211426 100.37316895 C8.45950907 106.79037503 8.45950907 106.79037503 6.18249512 109.99708557 C3.0471809 112.06634648 0.74325524 112.4375 -3 112.4375 C-5.68321228 111.05859375 -5.68321228 111.05859375 -8 108.4375 C-8.7510267 105.13181711 -8.67259562 101.87769322 -8.63110352 98.5 C-8.63825882 97.49146973 -8.64541412 96.48293945 -8.65278625 95.44384766 C-8.66970404 92.10793859 -8.65025164 88.77336752 -8.62890625 85.4375 C-8.62973466 83.12109262 -8.63219297 80.80468529 -8.63621521 78.48828125 C-8.63907534 73.63263259 -8.62435035 68.77744466 -8.59692383 63.921875 C-8.56284132 57.69383026 -8.56885757 51.46660957 -8.5875864 45.23852539 C-8.59814848 40.45500811 -8.58922565 35.671683 -8.57420158 30.88818359 C-8.56901353 28.59163992 -8.56950909 26.29507622 -8.57574654 23.99853516 C-8.58118896 20.7902502 -8.56085352 17.58315002 -8.53344727 14.375 C-8.53997314 13.42318848 -8.54649902 12.47137695 -8.55322266 11.49072266 C-8.45970394 5.06143145 -8.45970394 5.06143145 -6.09165955 1.84741211 C-3.81800912 0.31482653 -2.71378734 -0.07950549 0 0 Z " fill="#F4F4F4" transform="translate(208,116.5625)"/>
<path d="M0 0 C0 0.66 0 1.32 0 2 C-1.18851563 2.32871094 -2.37703125 2.65742187 -3.6015625 2.99609375 C-37.32625569 12.57270868 -66.68976028 28.14437794 -92.62109375 51.84375 C-94.77510509 53.79615436 -96.97027726 55.68277359 -99.1875 57.5625 C-103.19353266 61.062761 -106.61475328 64.90482295 -110 69 C-110.61488281 69.72703125 -111.22976562 70.4540625 -111.86328125 71.203125 C-117.82296714 78.41685301 -122.94827204 86.13802443 -128 94 C-128.556875 94.86496094 -129.11375 95.72992188 -129.6875 96.62109375 C-156.88141933 140.44173006 -166.59564454 195.80477575 -155.75 246.375 C-155.18094649 248.58705605 -154.59581365 250.79500114 -154 253 C-153.61960699 254.54031899 -153.23941456 256.08068752 -152.859375 257.62109375 C-144.65032848 289.63698963 -127.64437952 318.32121083 -106 343 C-105.20335937 343.92039062 -104.40671875 344.84078125 -103.5859375 345.7890625 C-99.03025165 350.97095946 -94.29652748 355.58936858 -89 360 C-88.15179688 360.74765625 -87.30359375 361.4953125 -86.4296875 362.265625 C-78.17181562 369.42094723 -69.32110444 375.31856491 -60 381 C-59.31760254 381.4228125 -58.63520508 381.845625 -57.93212891 382.28125 C-40.17458287 393.1749279 -19.73156897 401.95614767 0.84814453 405.59960938 C3.16414566 406.03054219 5.44977309 406.5526763 7.74609375 407.078125 C29.12506106 411.60880633 51.24828162 410.83965434 73 411 C73 411.33 73 411.66 73 412 C65.64342601 412.12938285 58.28715626 412.21540024 50.9296875 412.2746582 C48.43966722 412.29942419 45.94971649 412.33324674 43.45996094 412.37719727 C-7.33721785 413.24982463 -55.61890049 394.67280088 -92.8984375 359.94921875 C-94.77927667 358.20472294 -96.70618031 356.56532432 -98.6875 354.9375 C-101.82731277 352.26609753 -104.47663733 349.31170134 -107.13671875 346.16796875 C-108.396246 344.70248107 -109.69219127 343.26764289 -111.01953125 341.86328125 C-127.7216864 324.13793101 -139.80445179 302.39918913 -149 280 C-149.48944092 278.81978271 -149.48944092 278.81978271 -149.98876953 277.61572266 C-152.33507621 271.83714572 -154.28387832 265.99512853 -156 260 C-156.2582959 259.10732422 -156.5165918 258.21464844 -156.78271484 257.29492188 C-161.52176833 239.77533816 -161.52515673 221.96285502 -161.625 203.9375 C-161.63812225 202.76119019 -161.65124451 201.58488037 -161.6647644 200.3729248 C-162.10643645 149.26350709 -143.27599583 99.62590111 -107.55859375 62.69921875 C-104.99796639 60.0753192 -104.99796639 60.0753192 -102.890625 57.3515625 C-101.15097719 55.18778568 -99.42686884 53.47385355 -97.3125 51.6875 C-95.21078026 49.89969833 -93.12604591 48.11821697 -91.11328125 46.23046875 C-78.9245769 34.85594111 -64.80805606 25.57629177 -50 18 C-49.20754883 17.59152832 -48.41509766 17.18305664 -47.59863281 16.76220703 C-14.73429809 0 -14.73429809 0 0 0 Z " fill="#171717" transform="translate(161,4)"/>
<path d="M0 0 C0.33 0 0.66 0 1 0 C3.00627373 44.09343824 -13.53719069 87.70976406 -41 122 C-41.63518555 122.8036499 -42.27037109 123.6072998 -42.92480469 124.43530273 C-48.34474777 131.19589943 -54.10539617 137.45691492 -60.25 143.5625 C-61.63469482 144.939823 -61.63469482 144.939823 -63.04736328 146.3449707 C-69.67096264 152.85548988 -76.32725734 158.73896859 -84 164 C-84.56283691 164.39654785 -85.12567383 164.7930957 -85.70556641 165.20166016 C-114.54589268 185.51074776 -156.46545009 207.16334887 -193 201 C-193 200.67 -193 200.34 -193 200 C-192.37246826 199.93006836 -191.74493652 199.86013672 -191.09838867 199.78808594 C-148.2355897 194.93142122 -108.20614498 181.66462959 -75 153 C-74.24332031 152.35289062 -73.48664063 151.70578125 -72.70703125 151.0390625 C-70.08870293 148.7410843 -67.53785654 146.38670996 -65 144 C-64.16227051 143.21326904 -64.16227051 143.21326904 -63.30761719 142.41064453 C-37.26505685 117.74796165 -19.065756 86.66353665 -8.73217773 52.375 C-8.26802142 50.86939393 -7.77349326 49.37254946 -7.23852539 47.890625 C-4.08391152 38.72091754 -3.43191656 28.95437989 -2.3125 19.375 C-2.08609125 17.49339257 -1.85888457 15.61188097 -1.63085938 13.73046875 C-1.0780258 9.15469983 -0.53603445 4.577766 0 0 Z " fill="#171717" transform="translate(415,214)"/>
<path d="M0 0 C4.81525188 3.13883085 9.52192404 6.36881949 14.125 9.8125 C35.88177383 25.69887867 62.22099504 38.60641502 88.76757812 43.56738281 C91.1139177 44.02207591 93.43584177 44.55322968 95.765625 45.0859375 C117.14115524 49.6028437 139.25381813 48.83969515 161 49 C161 49.33 161 49.66 161 50 C153.64342601 50.12938285 146.28715626 50.21540024 138.9296875 50.2746582 C136.43966722 50.29942419 133.94971649 50.33324674 131.45996094 50.37719727 C84.82026762 51.17840461 42.92107926 35.84889717 6.16015625 7.43359375 C4.15571332 5.88999926 2.10501742 4.40334495 0 3 C0 2.01 0 1.02 0 0 Z " fill="#0C0C0C" transform="translate(73,366)"/>
<path d="M0 0 C4.67609984 3.62622218 8.18871957 7.42991154 11.6875 12.1875 C12.20151367 12.88166016 12.71552734 13.57582031 13.24511719 14.29101562 C30.6638313 38.20574743 43.51626686 65.1059218 50 94 C50.24556641 95.00522705 50.24556641 95.00522705 50.49609375 96.03076172 C54.4126144 112.31588117 53.27912012 129.37589222 53 146 C52.67 146 52.34 146 52 146 C51.98018066 145.351521 51.96036133 144.70304199 51.93994141 144.03491211 C51.54051805 131.57224139 51.03923282 119.31642603 49 107 C48.79249503 105.62507141 48.58548477 104.25006809 48.37890625 102.875 C46.81966867 92.91175538 44.31624984 83.51548241 41 74 C40.77441406 73.3414502 40.54882812 72.68290039 40.31640625 72.00439453 C36.92503145 62.19192097 32.75039901 52.94422853 27.91992188 43.75878906 C27.12104593 42.23142645 26.34728288 40.6909794 25.578125 39.1484375 C19.45076001 27.21809744 11.12602003 16.15776671 2.42578125 5.98046875 C0.96341031 3.94917541 0.41264113 2.44833734 0 0 Z " fill="#0F0F0F" transform="translate(363,68)"/>
<path d="M0 0 C0.99 0.495 0.99 0.495 2 1 C-0.83142079 4.12136818 -3.29786556 5.83224608 -7.18359375 7.4375 C-8.19486328 7.85773438 -9.20613281 8.27796875 -10.24804688 8.7109375 C-11.30056641 9.13632812 -12.35308594 9.56171875 -13.4375 10 C-14.45521484 10.42539062 -15.47292969 10.85078125 -16.52148438 11.2890625 C-28.21914401 16.09490628 -40.00798119 19.50465782 -52.4375 21.8125 C-54.19767456 22.14157349 -54.19767456 22.14157349 -55.9934082 22.47729492 C-64.24876382 23.92213951 -71.69366765 24.55072009 -80 23 C-80 22.67 -80 22.34 -80 22 C-79.37246826 21.93006836 -78.74493652 21.86013672 -78.09838867 21.78808594 C-54.57837711 19.12309875 -32.47069894 15.37446823 -10.97265625 5.0859375 C-10.29227295 4.76141602 -9.61188965 4.43689453 -8.91088867 4.10253906 C-7.5700075 3.45871028 -6.23278889 2.80718845 -4.8996582 2.14746094 C-3.29344408 1.37294139 -1.64888653 0.67895328 0 0 Z " fill="#1D1D1D" transform="translate(302,392)"/>
<path d="M0 0 C0.7109375 1.62890625 0.7109375 1.62890625 1 4 C-0.3359375 6.71484375 -0.3359375 6.71484375 -2.375 9.9375 C-14.20124249 29.51960638 -21.21362542 51.75743577 -26 74 C-26.66 73.67 -27.32 73.34 -28 73 C-24.38927346 46.76205381 -14.24747595 22.23010432 0 0 Z " fill="#101010" transform="translate(30,97)"/>
<path d="M0 0 C1.79269066 -0.00855011 1.79269066 -0.00855011 3.62159729 -0.01727295 C6.1490084 -0.02669933 8.67643168 -0.03324752 11.20385742 -0.03710938 C15.02219862 -0.04676323 18.83998922 -0.07778892 22.65820312 -0.109375 C35.31203752 -0.16276278 47.32518929 0.01135572 59.62890625 3.203125 C59.62890625 3.863125 59.62890625 4.523125 59.62890625 5.203125 C53.66568399 4.75880648 47.74521201 4.22053763 41.81860352 3.41674805 C32.81347008 2.24782736 23.89396407 2.01620278 14.81640625 2.015625 C13.61314697 2.0148999 12.4098877 2.0141748 11.17016602 2.01342773 C-0.23816889 2.08304322 -11.43279696 2.86472239 -22.68359375 4.765625 C-23.95493164 4.97348633 -23.95493164 4.97348633 -25.25195312 5.18554688 C-27.29247065 5.51986896 -29.33191209 5.8607492 -31.37109375 6.203125 C-31.37109375 5.543125 -31.37109375 4.883125 -31.37109375 4.203125 C-29.5181254 3.71934509 -27.66364934 3.24133864 -25.80859375 2.765625 C-24.25978516 2.36537109 -24.25978516 2.36537109 -22.6796875 1.95703125 C-15.07034988 0.2231444 -7.78591579 0.02906105 0 0 Z " fill="#1F1F1F" transform="translate(192.37109375,-0.203125)"/>
<path d="M0 0 C0 0.66 0 1.32 0 2 C-1.18851562 2.32871094 -2.37703125 2.65742187 -3.6015625 2.99609375 C-22.9709194 8.49630309 -42.83749533 15.44708816 -59.65234375 26.7890625 C-62 28 -62 28 -64.3125 27.6875 C-64.869375 27.460625 -65.42625 27.23375 -66 27 C-19.89130435 0 -19.89130435 0 0 0 Z " fill="#101010" transform="translate(161,4)"/>
<path d="M0 0 C0.66 0.33 1.32 0.66 2 1 C1.855625 2.30066406 1.71125 3.60132813 1.5625 4.94140625 C-3.29932976 41.10761038 -3.29932976 41.10761038 3 76 C3.04022391 78.3329866 3.04320247 80.66706666 3 83 C2.34 83 1.68 83 1 83 C-2.28680597 69.1501483 -2.43137829 55.52536477 -2.33618164 41.34106445 C-2.3123936 37.54552238 -2.31566628 33.75067692 -2.32226562 29.95507812 C-2.31669313 27.51301669 -2.30958597 25.07095817 -2.30078125 22.62890625 C-2.30169266 21.50891739 -2.30260406 20.38892853 -2.30354309 19.23500061 C-2.24416544 12.59747061 -1.57970269 6.45132308 0 0 Z " fill="#080808" transform="translate(2,170)"/>
<path d="M0 0 C0.99 0.33 1.98 0.66 3 1 C-9.09755478 13.94157023 -26.56225693 27.15867944 -43 34 C-43.66 33.67 -44.32 33.34 -45 33 C-42.35589726 29.94480001 -39.21387391 28.35044802 -35.6875 26.4375 C-22.87972736 19.29235736 -10.3981717 10.3981717 0 0 Z " fill="#151515" transform="translate(348,360)"/>
<path d="M0 0 C0.33 0 0.66 0 1 0 C1.56691319 12.4594922 0.99157707 24.27006117 -1.25 36.5625 C-1.45455811 37.72112549 -1.65911621 38.87975098 -1.86987305 40.07348633 C-3.82132274 50.06240027 -3.82132274 50.06240027 -8 54 C-7.23960396 46.64950495 -7.23960396 46.64950495 -6.0546875 43.4375 C-4.75410685 39.19857048 -4.2265136 35.05733706 -3.7109375 30.6640625 C-3.60278717 29.78471039 -3.49463684 28.90535828 -3.38320923 27.99935913 C-3.04132209 25.20857855 -2.70803903 22.41684887 -2.375 19.625 C-2.14379776 17.72519113 -1.91203294 15.82545064 -1.6796875 13.92578125 C-1.11327612 9.28462038 -0.55457553 4.6425894 0 0 Z " fill="#232323" transform="translate(415,214)"/>
<path d="M0 0 C0.99 0.33 1.98 0.66 3 1 C3.95141602 3.25317383 3.95141602 3.25317383 4.75390625 6.20703125 C5.05103516 7.26857422 5.34816406 8.33011719 5.65429688 9.42382812 C5.95400391 10.54208984 6.25371094 11.66035156 6.5625 12.8125 C7.16460529 15.00743584 7.76994833 17.20148671 8.37890625 19.39453125 C8.6426001 20.37268799 8.90629395 21.35084473 9.17797852 22.35864258 C9.90628997 24.96944834 9.90628997 24.96944834 11.09350586 27.1159668 C12.49396871 30.02665137 12.1219943 32.82814811 12 36 C8.53638828 32.53638828 7.57616913 27.6282508 6 23.0625 C5.64421875 22.06669922 5.2884375 21.07089844 4.921875 20.04492188 C2.62011905 13.42737351 1.03768632 6.9284336 0 0 Z " fill="#0B0B0B" transform="translate(3,253)"/>
<path d="M0 0 C7.06822004 7.06822004 5.19551991 24.03096201 5.20654297 33.421875 C5.1878317 40.28195998 5.11516555 47.14085782 5 54 C4.67 54 4.34 54 4 54 C3.98018066 53.351521 3.96036133 52.70304199 3.93994141 52.03491211 C3.39749299 32.11403379 3.39749299 32.11403379 0.44140625 12.4375 C-0.03591559 9.80166967 -0.09818147 7.36361037 -0.0625 4.6875 C-0.05347656 3.80449219 -0.04445313 2.92148438 -0.03515625 2.01171875 C-0.02355469 1.34785156 -0.01195312 0.68398437 0 0 Z " fill="#131313" transform="translate(411,160)"/>
<path d="M0 0 C1.38016165 4.40062966 0.1266578 7.68379269 -1.25 11.9375 C-3.51410422 19.23854705 -5.40015044 26.52102846 -7 34 C-7.66 33.67 -8.32 33.34 -9 33 C-4.74639769 4.74639769 -4.74639769 4.74639769 0 0 Z " fill="#060606" transform="translate(11,137)"/>
<path d="M0 0 C9.99368164 1.72160062 19.70489268 3.821339 29 8 C29.33 8.66 29.66 9.32 30 10 C23.13789698 9.41998891 17.02104577 7.59834522 10.5 5.4375 C8.98019531 4.9434668 8.98019531 4.9434668 7.4296875 4.43945312 C4.95095453 3.6326957 2.47456681 2.81942892 0 2 C0 1.34 0 0.68 0 0 Z " fill="#0B0B0B" transform="translate(252,3)"/>
<path d="M0 0 C-1.65 0.33 -3.3 0.66 -5 1 C-5 1.66 -5 2.32 -5 3 C-26.4010063 6.78804162 -26.4010063 6.78804162 -37 5 C-37 4.67 -37 4.34 -37 4 C-35.98015015 3.87939209 -35.98015015 3.87939209 -34.93969727 3.75634766 C-31.81338598 3.38392108 -28.68795937 3.00450703 -25.5625 2.625 C-24.49322266 2.49867188 -23.42394531 2.37234375 -22.32226562 2.2421875 C-16.74559657 1.56002615 -11.34612168 0.74970921 -5.91772461 -0.71728516 C-3.68693382 -1.04615285 -2.13433194 -0.6726848 0 0 Z " fill="#3E3E3E" transform="translate(259,410)"/>
<path d="M0 0 C2.65894779 3.98842169 4.57819076 8.23541735 6.625 12.5625 C7.25535156 13.87637695 7.25535156 13.87637695 7.8984375 15.21679688 C8.29546875 16.05404297 8.6925 16.89128906 9.1015625 17.75390625 C9.46588379 18.52033447 9.83020508 19.2867627 10.20556641 20.07641602 C11 22 11 22 11 24 C7.64849407 22.9545081 6.91380492 21.85511518 5.078125 18.76953125 C4.45550138 17.45672273 3.84651432 16.13737623 3.25 14.8125 C2.93417969 14.16474609 2.61835938 13.51699219 2.29296875 12.84960938 C0.24797726 8.41879448 -0.33474562 4.96324757 0 0 Z " fill="#191919" transform="translate(15,284)"/>
<path d="M0 0 C8.91 1.65 17.82 3.3 27 5 C22.46971858 7.26514071 21.16414494 7.03992679 16.3125 6.25 C14.46205078 5.95222656 14.46205078 5.95222656 12.57421875 5.6484375 C8.34658822 4.88145753 4.17645151 4.00810898 0 3 C0 2.01 0 1.02 0 0 Z " fill="#121212" transform="translate(153,408)"/>
<path d="M0 0 C-7.2281935 4.81879567 -16.44554502 6.42003695 -25 7 C-21.85214061 3.85214061 -17.81043154 3.12818669 -13.625 1.8125 C-12.76132812 1.52697266 -11.89765625 1.24144531 -11.0078125 0.94726562 C-10.1725 0.68236328 -9.3371875 0.41746094 -8.4765625 0.14453125 C-7.71424316 -0.09934326 -6.95192383 -0.34321777 -6.16650391 -0.59448242 C-3.7692759 -1.04318602 -2.29374865 -0.76208708 0 0 Z " fill="#050505" transform="translate(279,405)"/>
<path d="M0 0 C0 0.66 0 1.32 0 2 C-3.24494693 3.0373997 -6.49659404 4.05197239 -9.75 5.0625 C-10.67039063 5.35705078 -11.59078125 5.65160156 -12.5390625 5.95507812 C-13.42851562 6.22900391 -14.31796875 6.50292969 -15.234375 6.78515625 C-16.45979004 7.17006226 -16.45979004 7.17006226 -17.70996094 7.56274414 C-20.17868071 8.03411697 -21.6419054 7.79786936 -24 7 C-21.37562161 5.25041441 -19.81796628 4.5251318 -16.875 3.7109375 C-16.08609375 3.49179688 -15.2971875 3.27265625 -14.484375 3.046875 C-13.66453125 2.82515625 -12.8446875 2.6034375 -12 2.375 C-11.18015625 2.14554687 -10.3603125 1.91609375 -9.515625 1.6796875 C-3.39676339 0 -3.39676339 0 0 0 Z " fill="#0A0A0A" transform="translate(161,4)"/>
<path d="M0 0 C1 2 1 2 0.59448242 3.84765625 C0.35060791 4.57855469 0.1067334 5.30945313 -0.14453125 6.0625 C-0.54188477 7.25746094 -0.54188477 7.25746094 -0.94726562 8.4765625 C-1.37555664 9.72566406 -1.37555664 9.72566406 -1.8125 11 C-2.08642578 11.83273437 -2.36035156 12.66546875 -2.64257812 13.5234375 C-4.73986951 19.73986951 -4.73986951 19.73986951 -7 22 C-7.59244521 15.33499135 -5.48322845 10.13047025 -3 4 C-2.34 4 -1.68 4 -1 4 C-0.67 2.68 -0.34 1.36 0 0 Z " fill="#151515" transform="translate(409,264)"/>
<path d="M0 0 C2 1 2 1 3.32421875 4.640625 C3.78706905 6.17456691 4.24111662 7.7111855 4.6875 9.25 C4.92533203 10.01441406 5.16316406 10.77882812 5.40820312 11.56640625 C6.62932297 15.71320032 7.40266006 18.74951496 6 23 C4.06113159 19.49780976 2.98111975 15.9011452 1.875 12.0625 C1.52179688 10.85722656 1.16859375 9.65195313 0.8046875 8.41015625 C0.10217862 5.4330191 -0.17268097 3.03342903 0 0 Z " fill="#0A0A0A" transform="translate(405,139)"/>
<path d="M0 0 C0.43570312 0.37511719 0.87140625 0.75023437 1.3203125 1.13671875 C1.91585938 1.64847656 2.51140625 2.16023438 3.125 2.6875 C3.76179688 3.23535156 4.39859375 3.78320312 5.0546875 4.34765625 C6.76614087 5.80136062 8.50231289 7.21543326 10.25 8.625 C12.60282747 10.65698736 14.47108087 12.30190741 16 15 C15.67 15.99 15.34 16.98 15 18 C14.2575 16.9790625 14.2575 16.9790625 13.5 15.9375 C10.85308676 12.82737695 8.00908966 10.28410294 4.90234375 7.6484375 C1.28732725 4.51591807 1.28732725 4.51591807 0 3 C0 2.01 0 1.02 0 0 Z " fill="#242424" transform="translate(347,52)"/>
<path d="M0 0 C0 0.66 0 1.32 0 2 C-2.90534565 3.70758253 -5.82583418 5.38738354 -8.75 7.0625 C-9.575 7.54783203 -10.4 8.03316406 -11.25 8.53320312 C-12.04921875 8.98759766 -12.8484375 9.44199219 -13.671875 9.91015625 C-14.4050293 10.33433838 -15.13818359 10.75852051 -15.89355469 11.19555664 C-18.38006044 12.14514362 -19.53847306 11.89753304 -22 11 C-19.41732587 9.54048881 -16.83389259 8.08235119 -14.25 6.625 C-13.52039063 6.2125 -12.79078125 5.8 -12.0390625 5.375 C-11.33007812 4.97539062 -10.62109375 4.57578125 -9.890625 4.1640625 C-8.91657715 3.61419678 -8.91657715 3.61419678 -7.92285156 3.05322266 C-2.34863236 0 -2.34863236 0 0 0 Z " fill="#0C0C0C" transform="translate(117,20)"/>
<path d="M0 0 C0.66 0.33 1.32 0.66 2 1 C1.34 8.59 0.68 16.18 0 24 C-3.81559481 18.27660779 -2.29663635 10.81420511 -1 4.3125 C-0.67751769 2.8725269 -0.34837329 1.43392936 0 0 Z " fill="#2B2B2B" transform="translate(2,170)"/>
<path d="M0 0 C0.99 0.33 1.98 0.66 3 1 C2.33613281 1.58007812 1.67226562 2.16015625 0.98828125 2.7578125 C-3.73205385 6.93375859 -8.15424345 11.00051649 -12 16 C-12.33 15.01 -12.66 14.02 -13 13 C-3.93598616 2.47404844 -3.93598616 2.47404844 0 0 Z " fill="#1B1B1B" transform="translate(65,55)"/>
<path d="M0 0 C5.11365014 1.0681847 10.07227969 2.23107476 15 4 C14.67 4.66 14.34 5.32 14 6 C8.88634986 4.9318153 3.92772031 3.76892524 -1 2 C-0.67 1.34 -0.34 0.68 0 0 Z " fill="#030303" transform="translate(138,404)"/>
<path d="M0 0 C0.56332031 0.22042969 1.12664062 0.44085938 1.70703125 0.66796875 C-0.25035917 1.98187455 -2.20891 3.29405177 -4.16796875 4.60546875 C-5.25851563 5.33636719 -6.3490625 6.06726562 -7.47265625 6.8203125 C-10.29296875 8.66796875 -10.29296875 8.66796875 -12.29296875 9.66796875 C-11.93471314 6.88086157 -11.48760663 5.84365608 -9.3671875 3.9296875 C-8.57957031 3.41019531 -7.79195313 2.89070313 -6.98046875 2.35546875 C-6.20058594 1.82308594 -5.42070313 1.29070313 -4.6171875 0.7421875 C-2.29296875 -0.33203125 -2.29296875 -0.33203125 0 0 Z " fill="#191919" transform="translate(96.29296875,32.33203125)"/>
<path d="M0 0 C0.33 0.99 0.66 1.98 1 3 C-0.87109375 5.69921875 -0.87109375 5.69921875 -3.4375 8.6875 C-4.28183594 9.68136719 -5.12617187 10.67523438 -5.99609375 11.69921875 C-6.98802734 12.83810547 -6.98802734 12.83810547 -8 14 C-8.33 13.01 -8.66 12.02 -9 11 C-7.12890625 8.30078125 -7.12890625 8.30078125 -4.5625 5.3125 C-3.71816406 4.31863281 -2.87382813 3.32476562 -2.00390625 2.30078125 C-1.01197266 1.16189453 -1.01197266 1.16189453 0 0 Z " fill="#0C0C0C" transform="translate(51,69)"/>
<path d="M0 0 C4.97093824 0.41153737 9.44508386 0.79600832 14 3 C13.67 3.66 13.34 4.32 13 5 C8.15340923 4.40895235 4.39251833 3.02055843 0 1 C0 0.67 0 0.34 0 0 Z " fill="#0D0D0D" transform="translate(125,400)"/>
<path d="M0 0 C0.33 0.99 0.66 1.98 1 3 C-1.64 5.64 -4.28 8.28 -7 11 C-7.99 10.67 -8.98 10.34 -10 10 C-6.7 6.7 -3.4 3.4 0 0 Z " fill="#2D2D2D" transform="translate(359,349)"/>
<path d="M0 0 C1.67588141 2.51382212 2.94030311 4.82947288 4.1875 7.5625 C4.55230469 8.34753906 4.91710937 9.13257813 5.29296875 9.94140625 C5.52628906 10.62074219 5.75960938 11.30007813 6 12 C5.67 12.66 5.34 13.32 5 14 C1.57245724 11.71497149 1.11558883 10.86165366 0 7 C-0.07646165 4.6679198 -0.09143299 2.33154122 0 0 Z " fill="#252525" transform="translate(15,284)"/>
<path d="M0 0 C2.34917898 2.15341406 3.82443004 4.21667937 5.25 7.0625 C5.60578125 7.75472656 5.9615625 8.44695312 6.328125 9.16015625 C6.54984375 9.76730469 6.7715625 10.37445313 7 11 C6.67 11.66 6.34 12.32 6 13 C3.39954125 10.6975881 2.15260817 8.50103323 0.8125 5.3125 C0.46832031 4.50425781 0.12414062 3.69601563 -0.23046875 2.86328125 C-0.48441406 2.24839844 -0.73835938 1.63351563 -1 1 C-0.67 0.67 -0.34 0.34 0 0 Z " fill="#070707" transform="translate(392,109)"/>
<path d="M0 0 C3.84783484 3.06077771 7.14732623 5.94042579 10 10 C10 10.66 10 11.32 10 12 C6.88175879 10.63746417 4.95262649 9.14891747 2.75 6.5625 C2.22921875 5.96566406 1.7084375 5.36882812 1.171875 4.75390625 C0 3 0 3 0 0 Z " fill="#090909" transform="translate(363,68)"/>
<path d="M0 0 C1.53202706 0.25195908 3.05257128 0.57596777 4.5625 0.9375 C5.38878906 1.13214844 6.21507812 1.32679687 7.06640625 1.52734375 C8.02353516 1.76130859 8.02353516 1.76130859 9 2 C8.34 3.32 7.68 4.64 7 6 C3.62496331 4.8141763 1.35277269 3.72426311 -1 1 C-0.67 0.67 -0.34 0.34 0 0 Z " fill="#EDEDED" transform="translate(307,40)"/>
<path d="M0 0 C9.41002278 0.96355353 9.41002278 0.96355353 14 2 C10.00439392 4.83022097 6.57262677 3.76210446 2 3 C2 2.34 2 1.68 2 1 C1.34 0.67 0.68 0.34 0 0 Z " fill="#2D2D2D" transform="translate(166,411)"/>
<path d="M0 0 C4.20390632 1.50139512 5.89110738 4.17275043 8 8 C7.67 8.99 7.34 9.98 7 11 C5.82750647 9.54634731 4.66216184 8.08692581 3.5 6.625 C2.52546875 5.40683594 2.52546875 5.40683594 1.53125 4.1640625 C0 2 0 2 0 0 Z " fill="#0B0B0B" transform="translate(35,325)"/>
<path d="M0 0 C0.33 0.66 0.66 1.32 1 2 C-2.09677419 8.42293907 -2.09677419 8.42293907 -5.25 10.4375 C-6.11625 10.7159375 -6.11625 10.7159375 -7 11 C-3.57894737 1.78947368 -3.57894737 1.78947368 0 0 Z " fill="#191919" transform="translate(391,307)"/>
<path d="M0 0 C3.3 0.66 6.6 1.32 10 2 C10 2.66 10 3.32 10 4 C6.04 3.67 2.08 3.34 -2 3 C-1.34 2.67 -0.68 2.34 0 2 C0 1.34 0 0.68 0 0 Z " fill="#2C2C2C" transform="translate(242,1)"/>
<path d="M0 0 C3.14027363 0.33645789 4.05098295 1.05236086 6.3125 3.375 C6.869375 4.24125 7.42625 5.1075 8 6 C7.67 6.99 7.34 7.98 7 9 C6.401875 8.21625 5.80375 7.4325 5.1875 6.625 C3.08914751 3.85425677 3.08914751 3.85425677 0 2 C0 1.34 0 0.68 0 0 Z " fill="#1A1A1A" transform="translate(355,61)"/>
<path d="M0 0 C-3.44450737 2.29633824 -5.93812283 2.54016485 -10 3 C-10.33 2.34 -10.66 1.68 -11 1 C-3.57142857 -1.42857143 -3.57142857 -1.42857143 0 0 Z " fill="#0C0C0C" transform="translate(279,405)"/>
<path d="M0 0 C1.15518918 0.90484792 2.29885406 1.8244206 3.4375 2.75 C4.07558594 3.26046875 4.71367188 3.7709375 5.37109375 4.296875 C7.18810554 6.19667629 7.60423197 7.43586908 8 10 C6.84481082 9.09515208 5.70114594 8.1755794 4.5625 7.25 C3.60537109 6.48429687 3.60537109 6.48429687 2.62890625 5.703125 C0.81189446 3.80332371 0.39576803 2.56413092 0 0 Z " fill="#1B1B1B" transform="translate(65,358)"/>
<path d="M0 0 C-2.5652659 1.71017726 -4.87960965 2.90417811 -7.6875 4.125 C-8.49574219 4.47820313 -9.30398437 4.83140625 -10.13671875 5.1953125 C-10.75160156 5.46085937 -11.36648437 5.72640625 -12 6 C-12 5.01 -12 4.02 -12 3 C-7.77050005 0.58314288 -4.87664009 -0.34833144 0 0 Z " fill="#181818" transform="translate(129,16)"/>
<path d="M0 0 C0.33 0 0.66 0 1 0 C1.84681133 5.08086796 2.09038099 9.84828377 2 15 C-0.19219402 12.63310671 -0.9871902 11.48272731 -1.07421875 8.203125 C-0.88279297 6.74132812 -0.88279297 6.74132812 -0.6875 5.25 C-0.50767578 3.77273437 -0.50767578 3.77273437 -0.32421875 2.265625 C-0.21722656 1.51796875 -0.11023437 0.7703125 0 0 Z " fill="#414141" transform="translate(1,225)"/>
<path d="M0 0 C-3 2 -3 2 -5.125 2.5 C-5.74375 2.665 -6.3625 2.83 -7 3 C-7.33 3.66 -7.66 4.32 -8 5 C-8.99 4.67 -9.98 4.34 -11 4 C-10.67 3.01 -10.34 2.02 -10 1 C-6.78548731 -0.60725635 -3.56387464 -0.05748185 0 0 Z " fill="#E5E5E5" transform="translate(212,117)"/>
<path d="M0 0 C-1.65 0.33 -3.3 0.66 -5 1 C-5 1.66 -5 2.32 -5 3 C-7.64 3.33 -10.28 3.66 -13 4 C-11.72807637 1.45615274 -10.80051531 1.30631844 -8.1875 0.3125 C-7.50042969 0.04050781 -6.81335938 -0.23148437 -6.10546875 -0.51171875 C-3.70623504 -1.06812731 -2.3105636 -0.77364938 0 0 Z " fill="#262626" transform="translate(259,410)"/>
<path d="M0 0 C1 2 1 2 0.25 5.5625 C-0.1625 6.696875 -0.575 7.83125 -1 9 C-1.99 9.33 -2.98 9.66 -4 10 C-3.67 8.02 -3.34 6.04 -3 4 C-2.34 4 -1.68 4 -1 4 C-0.67 2.68 -0.34 1.36 0 0 Z " fill="#0C0C0C" transform="translate(409,264)"/>
<path d="M0 0 C0.99 0.495 0.99 0.495 2 1 C2.6328125 3.06640625 2.6328125 3.06640625 3.125 5.5625 C3.29257812 6.38878906 3.46015625 7.21507812 3.6328125 8.06640625 C3.75398438 8.70449219 3.87515625 9.34257812 4 10 C1 8 1 8 0.48828125 6.0546875 C0.32552083 4.03645833 0.16276042 2.01822917 0 0 Z " fill="#030303" transform="translate(405,139)"/>
<path d="M0 0 C-1.29299694 2.88437779 -2.65941363 4.87219421 -5 7 C-5.99 6.67 -6.98 6.34 -8 6 C-7.0479279 4.99403703 -6.08812654 3.99538437 -5.125 3 C-4.59132813 2.443125 -4.05765625 1.88625 -3.5078125 1.3125 C-2 0 -2 0 0 0 Z " fill="#0D0D0D" transform="translate(74,48)"/>
<path d="M0 0 C0 0.66 0 1.32 0 2 C-4.43076923 4.09230769 -4.43076923 4.09230769 -7.3125 3.625 C-7.869375 3.41875 -8.42625 3.2125 -9 3 C-5.73209435 0.82139623 -3.91954654 0 0 0 Z " fill="#040404" transform="translate(146,8)"/>
<path d="M0 0 C0.99 0.66 1.98 1.32 3 2 C2.01 2.495 2.01 2.495 1 3 C0.67 3.99 0.34 4.98 0 6 C-2.5625 7.1875 -2.5625 7.1875 -5 8 C-3.38731308 5.28775382 -1.75098126 2.62647188 0 0 Z " fill="#1A1A1A" transform="translate(282,257)"/>
<path d="M0 0 C3 1 3 1 4.1875 2.875 C5 5 5 5 5 8 C4.34 8 3.68 8 3 8 C0 2.25 0 2.25 0 0 Z " fill="#121212" transform="translate(387,102)"/>
<path d="M0 0 C0.33 0.99 0.66 1.98 1 3 C-0.65 4.32 -2.3 5.64 -4 7 C-4.66 6.67 -5.32 6.34 -6 6 C-4 4 -2 2 0 0 Z " fill="#0F0F0F" transform="translate(338,369)"/>
<path d="M0 0 C5.875 3.625 5.875 3.625 7 7 C4.50638429 5.79618552 2.31856917 4.54571278 0 3 C0 2.01 0 1.02 0 0 Z " fill="#070707" transform="translate(73,366)"/>
<path d="M0 0 C3.82946843 1.45255699 5.12050295 3.42895561 7 7 C4.13302508 5.71480435 2.02392288 4.42870746 0 2 C0 1.34 0 0.68 0 0 Z " fill="#020202" transform="translate(59,354)"/>
<path d="M0 0 C0.6875 1.75 0.6875 1.75 1 4 C-0.3125 6.25 -0.3125 6.25 -2 8 C-2.66 8 -3.32 8 -4 8 C-2.87548273 5.0280615 -1.77706209 2.66559313 0 0 Z " fill="#050505" transform="translate(30,97)"/>
<path d="M0 0 C4 1 4 1 6 4 C5.67 4.99 5.34 5.98 5 7 C3.35 4.69 1.7 2.38 0 0 Z " fill="#1B1B1B" transform="translate(371,80)"/>
<path d="M0 0 C2.31 0.33 4.62 0.66 7 1 C7.33 1.99 7.66 2.98 8 4 C2.25 3.125 2.25 3.125 0 2 C0 1.34 0 0.68 0 0 Z " fill="#0E0E0E" transform="translate(252,3)"/>
</svg>
