<?xml version="1.0" encoding="UTF-8"?>
<svg version="1.1" xmlns="http://www.w3.org/2000/svg" width="400" height="400">
<path d="M0 0 C132 0 264 0 400 0 C400 132 400 264 400 400 C268 400 136 400 0 400 C0 268 0 136 0 0 Z " fill="#565656" transform="translate(0,0)"/>
<path d="M0 0 C13.25949248 5.59465038 26.67720667 9.00835712 40.70361328 12.01025391 C42.79122296 12.47439516 44.86469895 13.00147491 46.93359375 13.54296875 C71.79515622 19.90012698 101.72976495 14.44438985 125.33447266 5.28076172 C128.03080424 4.23562239 130.76118727 3.30214672 133.5 2.375 C134.50675781 2.03082031 135.51351563 1.68664063 136.55078125 1.33203125 C139.1875 0.5625 139.1875 0.5625 142.1875 0.5625 C142.72356605 15.75103802 141.09745667 30.50910616 139.1875 45.5625 C138.9706958 47.33391357 138.9706958 47.33391357 138.74951172 49.14111328 C135.55407969 75.09736345 130.47674038 100.44793439 123.1875 125.5625 C122.7258363 127.19120058 122.26488238 128.82010254 121.8046875 130.44921875 C121.3708111 131.96643773 120.93596944 133.48338113 120.5 135 C120.30978271 135.66805664 120.11956543 136.33611328 119.92358398 137.02441406 C118.65045702 141.3624763 117.00707637 145.42796522 115.1875 149.5625 C114.44890263 151.49642456 113.71976023 153.43398596 113 155.375 C105.46003393 175.0103283 96.02003117 193.65263706 85 211.55859375 C83.60924181 213.86353566 82.33443793 216.13123053 81.1875 218.5625 C80.5275 218.5625 79.8675 218.5625 79.1875 218.5625 C78.92582031 219.28824219 78.66414063 220.01398438 78.39453125 220.76171875 C73.95456346 231.06416828 64.78799186 240.15382565 57.68212891 248.74462891 C56.69418458 249.94623516 55.71702198 251.15679645 54.75146484 252.37646484 C53.60651557 253.807337 52.40221625 255.19035992 51.1875 256.5625 C50.5275 256.5625 49.8675 256.5625 49.1875 256.5625 C48.81431641 257.42294922 48.81431641 257.42294922 48.43359375 258.30078125 C43.63263506 267.01474701 32.21388179 276.54376125 23.1875 280.5625 C23.1875 281.2225 23.1875 281.8825 23.1875 282.5625 C21.49438477 283.97949219 21.49438477 283.97949219 19.12890625 285.609375 C18.26716797 286.2075 17.40542969 286.805625 16.51757812 287.421875 C15.60427734 288.04578125 14.69097656 288.6696875 13.75 289.3125 C12.87150391 289.9209375 11.99300781 290.529375 11.08789062 291.15625 C8.46220124 292.97001034 5.8270824 294.76902963 3.1875 296.5625 C2.34968994 297.13395752 1.51187988 297.70541504 0.64868164 298.29418945 C-0.14030518 298.8274585 -0.92929199 299.36072754 -1.7421875 299.91015625 C-2.43940918 300.38203369 -3.13663086 300.85391113 -3.85498047 301.34008789 C-6.72739945 303.13382721 -9.66426816 304.31508739 -12.8125 305.5625 C-13.8025 306.14 -14.7925 306.7175 -15.8125 307.3125 C-19.74972344 308.95300977 -21.70872515 308.69457582 -25.8125 307.5625 C-27.8477562 306.45776804 -29.74411308 305.23217854 -31.6640625 303.9375 C-33.88042033 302.51903099 -36.11612446 301.42343229 -38.5 300.3125 C-53.79013457 292.79582316 -70.25425279 280.11145411 -81.8125 267.5625 C-82.3075 266.0775 -82.3075 266.0775 -82.8125 264.5625 C-84.13128729 263.86750194 -85.4673938 263.20508193 -86.8125 262.5625 C-94.02903379 256.44630899 -99.70874086 248.86895955 -105.41748047 241.38964844 C-106.81485939 239.55940975 -108.22059103 237.73589556 -109.62890625 235.9140625 C-112.03162273 232.80310019 -114.42704577 229.68673297 -116.8125 226.5625 C-117.4003125 225.82257813 -117.988125 225.08265625 -118.59375 224.3203125 C-119.8125 222.5625 -119.8125 222.5625 -119.8125 220.5625 C-120.4725 220.5625 -121.1325 220.5625 -121.8125 220.5625 C-123.15108524 218.27375827 -124.48351014 215.98180344 -125.8125 213.6875 C-126.38484375 212.71103516 -126.38484375 212.71103516 -126.96875 211.71484375 C-129.8125 206.7890625 -129.8125 206.7890625 -129.8125 204.5625 C-130.4725 204.5625 -131.1325 204.5625 -131.8125 204.5625 C-136.21026742 195.87481233 -140.53752467 187.15419125 -144.75 178.375 C-145.13921631 177.57408936 -145.52843262 176.77317871 -145.92944336 175.94799805 C-147.72842804 172.17361058 -149.28262307 168.75946172 -149.8125 164.5625 C-150.4725 164.5625 -151.1325 164.5625 -151.8125 164.5625 C-151.98555664 163.95809082 -152.15861328 163.35368164 -152.33691406 162.73095703 C-153.88643222 157.43013505 -155.61685773 152.24919625 -157.56518555 147.08251953 C-164.93777356 127.52936933 -170.33937542 107.71961214 -174.29736328 87.21020508 C-174.79698896 84.64222381 -175.32549798 82.08139089 -175.85546875 79.51953125 C-176.87858672 74.41353155 -177.61540883 69.28424071 -178.3125 64.125 C-179.04001016 58.76460918 -179.81768487 53.43879834 -180.8359375 48.125 C-181.89040855 42.43738401 -182.47648629 36.7631447 -182.9375 31 C-183.02241699 29.96875 -183.10733398 28.9375 -183.19482422 27.875 C-183.89494638 18.75791627 -184.02017019 9.69998849 -183.8125 0.5625 C-180.56374776 1.16412078 -177.48596538 1.92746191 -174.35546875 2.98046875 C-164.29295523 6.30552275 -154.2203507 9.36219855 -143.9375 11.9375 C-142.45092896 12.31297974 -142.45092896 12.31297974 -140.93432617 12.69604492 C-122.5566309 17.20313121 -103.17384068 17.09047952 -84.8125 12.5625 C-83.43106845 12.23404313 -82.04955595 11.90592657 -80.66796875 11.578125 C-76.70271405 10.62136113 -72.75724931 9.60059192 -68.8125 8.5625 C-67.19214844 8.14097656 -67.19214844 8.14097656 -65.5390625 7.7109375 C-60.33518388 6.34159155 -60.33518388 6.34159155 -55.28125 4.515625 C-51.79054403 3.16794738 -48.52682007 2.94022747 -44.8125 2.5625 C-44.8125 1.9025 -44.8125 1.2425 -44.8125 0.5625 C-43.97847656 0.32015625 -43.14445313 0.0778125 -42.28515625 -0.171875 C-36.20183461 -1.98363173 -30.44102984 -3.84360444 -24.8125 -6.80078125 C-17.68418032 -9.07014865 -6.4941118 -2.78193708 0 0 Z " fill="#FDFDFD" transform="translate(220.8125,53.4375)"/>
<path d="M0 0 C0.33 0 0.66 0 1 0 C1 113.52 1 227.04 1 344 C-64.34 344 -129.68 344 -197 344 C-192.64249522 340.73187141 -189.01261545 339.60378463 -183.875 338.0625 C-181.06156945 337.02275393 -179.34623138 335.8164372 -177 334 C-175.33338162 333.33321264 -173.66670863 332.66656176 -172 332 C-157.42684132 324.31771754 -143.83800199 315.19605451 -131.19140625 304.66015625 C-129 303 -129 303 -127 303 C-127 302.34 -127 301.68 -127 301 C-125.62693094 299.82218388 -124.19615421 298.71183368 -122.75 297.625 C-116.67878733 292.77277918 -111.18825343 287.42321309 -105.6875 281.9375 C-104.82801758 281.08687988 -103.96853516 280.23625977 -103.08300781 279.35986328 C-98.68718479 274.94436258 -94.68736865 270.55023437 -91.16723633 265.40063477 C-90.58945435 264.70732056 -90.58945435 264.70732056 -90 264 C-89.34 264 -88.68 264 -88 264 C-87.75636719 263.28199219 -87.51273437 262.56398438 -87.26171875 261.82421875 C-85.8378263 258.636992 -84.08360163 256.45886111 -81.8125 253.8125 C-69.3567626 238.88145708 -58.7015597 221.40311939 -50 204 C-49.34 204 -48.68 204 -48 204 C-47.79375 202.9275 -47.5875 201.855 -47.375 200.75 C-46.14556396 195.76149695 -43.82093777 191.46124441 -41.46484375 186.921875 C-39.6752711 183.35227409 -38.30492923 179.76979555 -37 176 C-36.34 176 -35.68 176 -35 176 C-34.89300781 175.16855469 -34.78601563 174.33710938 -34.67578125 173.48046875 C-33.91676282 169.57130446 -32.63370641 166.00517096 -31.1875 162.3125 C-30.1203431 159.54343574 -29.05730312 156.77284245 -28 154 C-27.67829834 153.15727539 -27.35659668 152.31455078 -27.02514648 151.44628906 C-24.52749403 144.75950941 -22.50669535 138.02495191 -20.6875 131.125 C-20.24410278 129.4536499 -20.24410278 129.4536499 -19.79174805 127.74853516 C-18.8498604 124.16851648 -17.92178309 120.58524601 -17 117 C-16.69094727 115.79794922 -16.38189453 114.59589844 -16.06347656 113.35742188 C-11.89951536 97.00742939 -8.35764914 80.70855696 -6 64 C-5.82871582 62.80068848 -5.65743164 61.60137695 -5.48095703 60.36572266 C-2.66383407 40.2838425 -1.00119233 20.25176034 0 0 Z " fill="#FDFDFD" transform="translate(399,56)"/>
<path d="M0 0 C0.33 0 0.66 0 1 0 C1.02187378 0.83917969 1.02187378 0.83917969 1.04418945 1.6953125 C1.93271086 32.9411254 4.35030627 65.38688006 11 96 C11.20036865 96.93150879 11.4007373 97.86301758 11.60717773 98.82275391 C14.90028113 113.90396371 18.78915392 128.71900231 23.25537109 143.49267578 C23.8848935 145.61241187 24.48276506 147.73427093 25.05078125 149.87109375 C27.26177302 158.14039776 30.20544347 166.03402943 33.35913086 173.9831543 C33.86972046 175.28119995 33.86972046 175.28119995 34.390625 176.60546875 C34.70032227 177.38043701 35.01001953 178.15540527 35.32910156 178.95385742 C36 181 36 181 36 184 C36.66 184 37.32 184 38 184 C38.19956299 184.54350098 38.39912598 185.08700195 38.60473633 185.64697266 C41.73691383 193.83727827 45.70867607 201.5754885 49.6875 209.375 C51.05023637 212.04714413 52.40754919 214.72194376 53.76171875 217.3984375 C54.35944092 218.57067871 54.95716309 219.74291992 55.57299805 220.95068359 C56.70147225 223.36208526 57.5131495 225.40319773 58 228 C58.66 228 59.32 228 60 228 C61.41870266 230.18308986 62.72019672 232.36189958 64 234.625 C68.55174841 242.43902071 73.61976824 249.73954557 79 257 C79.40814941 257.55381348 79.81629883 258.10762695 80.23681641 258.67822266 C84.34530283 264.24662743 88.47627279 269.76200007 93 275 C93.50789063 275.59941406 94.01578125 276.19882812 94.5390625 276.81640625 C99.10535565 282.14374825 104.00287343 287.07887536 109 292 C109.825 292.845625 110.65 293.69125 111.5 294.5625 C114.5316198 297.51832931 117.70101039 300.29678418 120.87890625 303.09375 C122.45074593 304.5063794 123.96217775 305.98684897 125.4375 307.5 C137.01095439 318.79117502 151.51640839 328.84824429 166 336 C166.75667969 336.37898438 167.51335937 336.75796875 168.29296875 337.1484375 C169.13794922 337.56996094 169.13794922 337.56996094 170 338 C170 338.66 170 339.32 170 340 C170.825 340.2475 171.65 340.495 172.5 340.75 C176 342 176 342 179.5 343.8125 C185.3916702 346.86189961 191.73816438 348.85409004 198 351 C198 351.33 198 351.66 198 352 C132.66 352 67.32 352 0 352 C0 235.84 0 119.68 0 0 Z " fill="#FEFEFE" transform="translate(0,48)"/>
<path d="M0 0 C130.68 0 261.36 0 396 0 C393.08990842 2.18256869 391.39063182 3.41767862 388.20703125 4.68359375 C387.49925537 4.96920166 386.79147949 5.25480957 386.06225586 5.54907227 C385.31983643 5.84225342 384.57741699 6.13543457 383.8125 6.4375 C382.26782727 7.05889774 380.72355131 7.68128272 379.1796875 8.3046875 C378.44717773 8.59956055 377.71466797 8.89443359 376.95996094 9.19824219 C374.75916666 10.09851728 372.59511992 11.06344642 370.4375 12.0625 C363.7702567 15.06530424 356.86609925 17.49721033 350 20 C349.23220215 20.28278809 348.4644043 20.56557617 347.67333984 20.85693359 C298.71939096 38.8217776 264.54247526 34.50973367 216.32617188 15.87988281 C213.57578428 14.83953889 210.80152667 13.89310414 208 13 C208 12.34 208 11.68 208 11 C199.01510773 8.98943013 199.01510773 8.98943013 190 10 C190 10.66 190 11.32 190 12 C189.16339844 12.29132812 188.32679688 12.58265625 187.46484375 12.8828125 C181.13476993 15.11200793 174.89049305 17.43094923 168.6875 20 C161.34495203 23.00072603 153.86438778 25.25973352 146.2265625 27.37792969 C143.92755894 28.02023901 141.63555986 28.68407288 139.34375 29.3515625 C96.46633693 41.7418573 58.08351845 26.30661395 18.515625 9.4921875 C16.16158037 8.49302633 13.79663782 7.51918062 11.421875 6.5703125 C10.33390625 6.13460938 9.2459375 5.69890625 8.125 5.25 C7.19945312 4.88390625 6.27390625 4.5178125 5.3203125 4.140625 C3 3 3 3 0 0 Z " fill="#FDFDFD" transform="translate(2,0)"/>
<path d="M0 0 C4.063125 -0.020625 8.12625 -0.04125 12.3125 -0.0625 C13.59036377 -0.071604 14.86822754 -0.08070801 16.18481445 -0.09008789 C17.1924585 -0.09258545 18.20010254 -0.09508301 19.23828125 -0.09765625 C20.26993408 -0.10289307 21.30158691 -0.10812988 22.36450195 -0.11352539 C25 0 25 0 28 1 C28 1.66 28 2.32 28 3 C29.32 3.66 30.64 4.32 32 5 C32.08121924 6.60332791 32.13929134 8.20784026 32.1875 9.8125 C32.23970703 11.15248047 32.23970703 11.15248047 32.29296875 12.51953125 C32 15 32 15 30.61328125 16.82421875 C29 18 29 18 27 18 C27 18.66 27 19.32 27 20 C27.5775 20.0825 28.155 20.165 28.75 20.25 C31.97733416 21.32577805 33.0837224 22.1255836 35 25 C35.63323107 28.77033914 35.65964404 32.23220268 35 36 C31.35074523 40.83279686 27.94141714 42.81171657 22 44 C14.74 44 7.48 44 0 44 C0 29.48 0 14.96 0 0 Z " fill="#595959" transform="translate(114,113)"/>
<path d="M0 0 C3.3 0 6.6 0 10 0 C10 1.32 10 2.64 10 4 C10.80695313 3.34515625 11.61390625 2.6903125 12.4453125 2.015625 C16.47595619 -0.67147079 20.17031644 -0.45732504 24.875 -0.25 C26.050625 -0.22292969 26.050625 -0.22292969 27.25 -0.1953125 C29.16720189 -0.14855148 31.08376715 -0.07682003 33 0 C34.81366608 4.10996038 36.44352016 8.11318913 37.6875 12.4375 C37.93886719 13.30246094 38.19023437 14.16742188 38.44921875 15.05859375 C38.63097656 15.69925781 38.81273437 16.33992188 39 17 C41.02853866 13.95719201 41.95462925 11.4043351 43.0625 7.9375 C44.91525424 2.16949153 44.91525424 2.16949153 46 0 C49.3 0 52.6 0 56 0 C55.22408282 4.91414211 53.53665881 9.45680817 51.875 14.125 C51.56804199 14.99358643 51.26108398 15.86217285 50.94482422 16.75708008 C48.70263291 23.0784181 46.42713189 29.38775535 44.125 35.6875 C43.82706543 36.50686035 43.52913086 37.3262207 43.22216797 38.17041016 C41.11865433 43.88134567 41.11865433 43.88134567 40 45 C38.14712498 45.07226502 36.29166122 45.0838122 34.4375 45.0625 C33.42558594 45.05347656 32.41367188 45.04445312 31.37109375 45.03515625 C30.19740234 45.01775391 30.19740234 45.01775391 29 45 C29.30035156 44.27554688 29.60070312 43.55109375 29.91015625 42.8046875 C30.29042969 41.83789062 30.67070312 40.87109375 31.0625 39.875 C31.44535156 38.92367187 31.82820313 37.97234375 32.22265625 36.9921875 C33.89319059 30.56188947 30.95383502 24.90284734 28.5625 19 C26.57566443 14.03495936 24.62604679 9.0987598 23 4 C22.67 5.65 22.34 7.3 22 9 C16.06 9.495 16.06 9.495 10 10 C10 17.59 10 25.18 10 33 C6.7 33 3.4 33 0 33 C0 22.11 0 11.22 0 0 Z " fill="#585858" transform="translate(195,124)"/>
<path d="M0 0 C4.87209093 3.06761281 6.53588723 5.5410456 8 11 C8.84356394 18.15697405 8.93765053 24.54720127 4.484375 30.4765625 C1.1074407 33.94236349 -1.88019213 34.90346484 -6.625 35.3125 C-10 35 -10 35 -14 33 C-14 37.29 -14 41.58 -14 46 C-17.3 46 -20.6 46 -24 46 C-24 31.15 -24 16.3 -24 1 C-20.7 1 -17.4 1 -14 1 C-14 1.99 -14 2.98 -14 4 C-13.34 4 -12.68 4 -12 4 C-12 3.34 -12 2.68 -12 2 C-8.29635991 -0.46909339 -4.29665839 -0.80149205 0 0 Z " fill="#555555" transform="translate(280,123)"/>
<path d="M0 0 C3.63 0 7.26 0 11 0 C11 5.28 11 10.56 11 16 C15.62 16 20.24 16 25 16 C25 10.72 25 5.44 25 0 C28.63 0 32.26 0 36 0 C36 14.52 36 29.04 36 44 C32.37 44 28.74 44 25 44 C25 37.4 25 30.8 25 24 C20.05 24 15.1 24 10 24 C10 30.6 10 37.2 10 44 C6.7 44 3.4 44 0 44 C0 29.48 0 14.96 0 0 Z " fill="#585858" transform="translate(124,204)"/>
<path d="M0 0 C3.3 0 6.6 0 10 0 C10 5.28 10 10.56 10 16 C14.95 16 19.9 16 25 16 C25 10.72 25 5.44 25 0 C28.63 0 32.26 0 36 0 C36 14.52 36 29.04 36 44 C32.37 44 28.74 44 25 44 C25 37.4 25 30.8 25 24 C20.05 24 15.1 24 10 24 C10 30.6 10 37.2 10 44 C6.7 44 3.4 44 0 44 C0 29.48 0 14.96 0 0 Z " fill="#575757" transform="translate(249,204)"/>
<path d="M0 0 C3.96 0 7.92 0 12 0 C20.3769884 23.80935295 20.3769884 23.80935295 23.2109375 33.4765625 C23.97344838 36.04941369 23.97344838 36.04941369 25.1015625 38.6484375 C26 41 26 41 26 44 C22.37 44 18.74 44 15 44 C14.34 41.03 13.68 38.06 13 35 C8.05 35 3.1 35 -2 35 C-2.66 37.97 -3.32 40.94 -4 44 C-7.63 44 -11.26 44 -15 44 C-11.19203669 29.36940413 -6.79854227 13.59708454 0 0 Z " fill="#575757" transform="translate(180,204)"/>
<path d="M0 0 C1 1 1 1 1.09765625 3.28515625 C1.08605469 4.20167969 1.07445312 5.11820313 1.0625 6.0625 C1.05347656 6.98160156 1.04445312 7.90070313 1.03515625 8.84765625 C1.02355469 9.55792969 1.01195312 10.26820313 1 11 C0.46632812 10.71125 -0.06734375 10.4225 -0.6171875 10.125 C-6.48201581 7.20273261 -11.45534969 6.20788955 -18 7 C-19.29633621 8.06645115 -19.29633621 8.06645115 -19.0625 10.5625 C-19.041875 11.366875 -19.02125 12.17125 -19 13 C-16.05485878 14.28849928 -13.18658282 15.2239379 -10.0625 15.9375 C-4.4975095 17.29199769 -0.08828595 18.97152288 3 24 C3.7365053 28.44069371 3.49668572 32.65602689 1.9375 36.875 C-2.41304577 41.64656633 -7.61343869 43.73336588 -13.9921875 44.12109375 C-20.09501558 44.30058869 -26.46601076 43.76699462 -32 41 C-32 37.37 -32 33.74 -32 30 C-30.68 30.66 -29.36 31.32 -28 32 C-21.55354326 34.79798409 -16.92713173 35.20949919 -10 34 C-9.4465236 31.92446352 -9 30.15634036 -9 28 C-9.95261719 27.81824219 -10.90523437 27.63648438 -11.88671875 27.44921875 C-13.14097656 27.19785156 -14.39523438 26.94648438 -15.6875 26.6875 C-16.92886719 26.44386719 -18.17023438 26.20023438 -19.44921875 25.94921875 C-24.53318698 24.59013813 -27.18813998 23.06823687 -30.375 18.875 C-32.29260146 15.18068209 -32.36591592 12.1414214 -31.66796875 8.078125 C-30.16882601 3.41412536 -26.88994983 1.50604991 -22.8125 -0.8125 C-15.21437397 -3.17912942 -7.54516215 -2.35464058 0 0 Z " fill="#585858" transform="translate(240,205)"/>
<path d="M0 0 C0 3.63 0 7.26 0 11 C-2.475 10.01 -2.475 10.01 -5 9 C-5 8.34 -5 7.68 -5 7 C-10.26202648 5.72435722 -15.00852359 4.80511416 -19.8125 7.6875 C-24.02203826 12.13758331 -24.49266653 16.46238724 -24.39453125 22.421875 C-23.75324252 26.61247461 -21.74307904 29.81636584 -19 33 C-15.92805092 34.53597454 -13.39755707 34.2265038 -10 34 C-6.81637564 32.7000156 -6.81637564 32.7000156 -4 31 C-2.68 30.34 -1.36 29.68 0 29 C0 32.63 0 36.26 0 40 C-7.66134071 43.06453629 -15.1796981 44.55013066 -23.33203125 42.37890625 C-28.76218158 40.04279951 -32.13428759 36.09238094 -35 31 C-35.875 28.25 -35.875 28.25 -36 25 C-36.06058594 24.10152344 -36.12117187 23.20304687 -36.18359375 22.27734375 C-36.46334181 15.57186742 -35.99318759 9.62251496 -32 4 C-31.01 3.67 -30.02 3.34 -29 3 C-29 2.34 -29 1.68 -29 1 C-19.37303097 -4.92428863 -10.25650202 -4.10260081 0 0 Z " fill="#5B5B5B" transform="translate(189,115)"/>
<path d="M0 0 C3.3 0 6.6 0 10 0 C10 2.97 10 5.94 10 9 C13.3 9 16.6 9 20 9 C20 11.31 20 13.62 20 16 C16.7 16 13.4 16 10 16 C10.33 22.27 10.66 28.54 11 35 C13.97 35 16.94 35 20 35 C20.04241723 37.33294775 20.04092937 39.66702567 20 42 C18.14709648 43.85290352 15.23375369 43.21658627 12.75 43.25 C11.61046875 43.27578125 10.4709375 43.3015625 9.296875 43.328125 C5.68412649 42.96856235 3.84524333 42.22219734 1 40 C0.01956036 37.05868109 -0.11621202 35.17498335 -0.09765625 32.11328125 C-0.09443359 31.17548828 -0.09121094 30.23769531 -0.08789062 29.27148438 C-0.07951172 28.29501953 -0.07113281 27.31855469 -0.0625 26.3125 C-0.05798828 25.32443359 -0.05347656 24.33636719 -0.04882812 23.31835938 C-0.03704303 20.87884526 -0.02059011 18.43945311 0 16 C-1.32 16 -2.64 16 -4 16 C-4 13.69 -4 11.38 -4 9 C-2.68 9 -1.36 9 0 9 C0 6.03 0 3.06 0 0 Z " fill="#585858" transform="translate(295,115)"/>
<path d="M0 0 C4.86377096 3.06237431 6.56483261 5.53583057 8 11 C8.265625 14.359375 8.265625 14.359375 8.25 17.75 C8.25515625 18.87921875 8.2603125 20.0084375 8.265625 21.171875 C8 24 8 24 6 26 C4.68 25.01 3.36 24.02 2 23 C1.38125 23.474375 0.7625 23.94875 0.125 24.4375 C-3.20424667 26.88547549 -5.03337837 27.11495669 -9.125 27.0625 C-10.73375 27.041875 -12.3425 27.02125 -14 27 C-14 21.06 -14 15.12 -14 9 C-12.68 8.67 -11.36 8.34 -10 8 C-10.66 6.02 -11.32 4.04 -12 2 C-8.29635991 -0.46909339 -4.29665839 -0.80149205 0 0 Z " fill="#5B5B5B" transform="translate(280,123)"/>
<path d="M0 0 C3.96 0 7.92 0 12 0 C13.03004293 2.78858 14.04930997 5.58030288 15.0625 8.375 C15.35705078 9.1690625 15.65160156 9.963125 15.95507812 10.78125 C16.22900391 11.54179687 16.50292969 12.30234375 16.78515625 13.0859375 C17.04176025 13.7876709 17.29836426 14.4894043 17.56274414 15.21240234 C18 17 18 17 17 19 C16.67 17.68 16.34 16.36 16 15 C15.34 15 14.68 15 14 15 C13.67 15.66 13.34 16.32 13 17 C12.34 17.33 11.68 17.66 11 18 C10.53348793 20.12576782 10.53348793 20.12576782 10.375 22.5625 C10.25125 24.026875 10.1275 25.49125 10 27 C7.03 27 4.06 27 1 27 C1 24.03 1 21.06 1 18 C0.34 18 -0.32 18 -1 18 C-1.33 17.34 -1.66 16.68 -2 16 C-4.96865509 18.54456151 -6.3619751 21.48994665 -8 25 C-9 23 -9 23 -8.14453125 20.05859375 C-7.48517578 18.26615234 -7.48517578 18.26615234 -6.8125 16.4375 C-6.58344971 15.81214355 -6.35439941 15.18678711 -6.1184082 14.54248047 C-4.28147044 9.59261766 -2.22735137 4.78468072 0 0 Z " fill="#5A5A5A" transform="translate(180,204)"/>
<path d="M0 0 C2.67335724 2.75959457 3.19880826 5.27883049 3.375 9 C3.18257724 12.77006076 2.76010603 15.23989397 0 18 C-3.06117918 18.72730144 -5.82790108 18.86208266 -9 19 C-9 13.06 -9 7.12 -9 1 C-5.88122044 -0.55938978 -3.42744229 -0.3607834 0 0 Z " fill="#F7F7F7" transform="translate(275,131)"/>
<path d="M0 0 C-0.99 0.33 -1.98 0.66 -3 1 C-3.33 1.99 -3.66 2.98 -4 4 C-4.33 4.33 -4.66 4.66 -5 5 C-4.34 5.33 -3.68 5.66 -3 6 C-2.1875 7.75 -2.1875 7.75 -2 10 C-3.3992219 12.79844381 -4.78791383 14.78791383 -7 17 C-7.33 16.34 -7.66 15.68 -8 15 C-10.86724686 15.57344937 -11.8614515 15.8614515 -14 18 C-14.66 17.67 -15.32 17.34 -16 17 C-16.66 17.66 -17.32 18.32 -18 19 C-17.53411505 13.29290936 -16.06242216 9.84060277 -13 5 C-12.34 5 -11.68 5 -11 5 C-11 4.34 -11 3.68 -11 3 C-9.73581754 2.30034557 -8.46334598 1.61565237 -7.1875 0.9375 C-6.47980469 0.55464844 -5.77210938 0.17179687 -5.04296875 -0.22265625 C-3 -1 -3 -1 0 0 Z " fill="#5A5A5A" transform="translate(171,113)"/>
<path d="M0 0 C9.10714286 -0.26785714 9.10714286 -0.26785714 13 2 C13.3125 5.3125 13.3125 5.3125 13 9 C10.09033541 11.81873757 7.58744626 12.15979168 3.6875 12.1875 C1.8621875 12.0946875 1.8621875 12.0946875 0 12 C0 8.04 0 4.08 0 0 Z " fill="#F3F3F3" transform="translate(125,137)"/>
<path d="M0 0 C0.33 0 0.66 0 1 0 C1.01981934 0.60134766 1.03963867 1.20269531 1.06005859 1.82226562 C1.49726547 14.60513187 2.16534877 27.32833 3.33935547 40.06640625 C3.7939519 45.0712638 4.10455729 49.97427959 4 55 C2.68 54.67 1.36 54.34 0 54 C0 36.18 0 18.36 0 0 Z " fill="#F7F7F7" transform="translate(0,48)"/>
<path d="M0 0 C3 1 3 1 4 3 C4.9424571 12.73357328 4.9424571 12.73357328 2 16.6875 C1.34 17.120625 0.68 17.55375 0 18 C-0.33 16.35 -0.66 14.7 -1 13 C-1.99 13 -2.98 13 -4 13 C-4.66 12.67 -5.32 12.34 -6 12 C-6.33 12.66 -6.66 13.32 -7 14 C-8.65 14 -10.3 14 -12 14 C-8.375 11 -8.375 11 -5 11 C-5 10.34 -5 9.68 -5 9 C-3.68 8.67 -2.36 8.34 -1 8 C-0.67 5.36 -0.34 2.72 0 0 Z " fill="#5E5E5E" transform="translate(145,135)"/>
<path d="M0 0 C0.625 2.3125 0.625 2.3125 1 5 C-1.47238782 8.70858173 -2.93685313 8.93000983 -7.09765625 9.85546875 C-9 10 -9 10 -10.875 8.6875 C-11.431875 7.8521875 -11.431875 7.8521875 -12 7 C-12.66 6.67 -13.32 6.34 -14 6 C-9.49605818 1.40022963 -6.77374007 -0.82943756 0 0 Z " fill="#555555" transform="translate(178,112)"/>
<path d="M0 0 C0.04241723 2.33294775 0.04092937 4.66702567 0 7 C-1 8 -1 8 -3.94140625 8.09765625 C-5.73384766 8.08025391 -5.73384766 8.08025391 -7.5625 8.0625 C-9.35880859 8.04896484 -9.35880859 8.04896484 -11.19140625 8.03515625 C-12.11824219 8.02355469 -13.04507812 8.01195312 -14 8 C-14.33 6.68 -14.66 5.36 -15 4 C-13.68 4.33 -12.36 4.66 -11 5 C-10.79375 4.360625 -10.5875 3.72125 -10.375 3.0625 C-9 1 -9 1 -6.0625 0.25 C-3 0 -3 0 0 0 Z " fill="#616161" transform="translate(315,150)"/>
<path d="M0 0 C4.03127692 1.61251077 8.01479973 3.280894 12 5 C8.45633299 7.04442328 6.39797371 7.26700438 2 8 C1.67 21.2 1.34 34.4 1 48 C0.67 48 0.34 48 0 48 C0 32.16 0 16.32 0 0 Z " fill="#626262" transform="translate(0,0)"/>
<path d="M0 0 C1 2 1 2 1.375 4 C1.88866379 6.37985297 1.88866379 6.37985297 5 8 C6.1875 11.625 6.1875 11.625 7 15 C7.66 15 8.32 15 9 15 C9 15.66 9 16.32 9 17 C9.66 17.33 10.32 17.66 11 18 C10.34 18 9.68 18 9 18 C9 18.66 9 19.32 9 20 C4.74166586 19.20775179 2.52100179 17.91116967 0.0625 14.4375 C-2.27264177 10.3640578 -2.25746763 7.33779214 -1.4921875 2.78515625 C-1 1 -1 1 0 0 Z " fill="#636363" transform="translate(210,210)"/>
<path d="M0 0 C6.0546875 -0.1953125 6.0546875 -0.1953125 8 0 C10 2 10 2 10.3125 4.5 C10.1578125 5.7375 10.1578125 5.7375 10 7 C6.3558226 9.4294516 4.28758728 9.16179575 0 9 C0 6.03 0 3.06 0 0 Z " fill="#F3F3F3" transform="translate(125,121)"/>
<path d="M0 0 C1.98 0.99 1.98 0.99 4 2 C5.57403776 2.56811297 7.1578301 3.10988621 8.75 3.625 C9.54921875 3.88539063 10.3484375 4.14578125 11.171875 4.4140625 C11.77515625 4.60742188 12.3784375 4.80078125 13 5 C11.1875 6.0625 11.1875 6.0625 9 7 C8.01 6.67 7.02 6.34 6 6 C6 6.66 6 7.32 6 8 C6.66 8.33 7.32 8.66 8 9 C7.34 9.66 6.68 10.32 6 11 C6.33 11.66 6.66 12.32 7 13 C4.69 12.34 2.38 11.68 0 11 C0 7.37 0 3.74 0 0 Z " fill="#5B5B5B" transform="translate(208,235)"/>
<path d="M0 0 C0.66 0 1.32 0 2 0 C2.67057887 1.7902061 3.3363469 3.58221489 4 5.375 C4.556875 6.87160156 4.556875 6.87160156 5.125 8.3984375 C6 11 6 11 6 13 C3.03 13 0.06 13 -3 13 C-0.99107143 3.89285714 -0.99107143 3.89285714 0 0 Z " fill="#EDEDED" transform="translate(184,218)"/>
<path d="M0 0 C0.33 0 0.66 0 1 0 C1.02505615 0.64324219 1.0501123 1.28648438 1.07592773 1.94921875 C1.57506647 14.64386736 2.12394604 27.32517675 3 40 C2.67 40 2.34 40 2 40 C2 38.35 2 36.7 2 35 C1.34 35 0.68 35 0 35 C0 23.45 0 11.9 0 0 Z " fill="#D2D2D2" transform="translate(0,48)"/>
<path d="M0 0 C2.76276177 0.52268466 5.3260876 1.10869587 8 2 C8.66 1.67 9.32 1.34 10 1 C11.67654729 1.27942455 13.34608154 1.60828247 15 2 C8.05899573 6.33812767 -1.65646482 5.12348442 -9.5 5.0625 C-10.60859375 5.05798828 -11.7171875 5.05347656 -12.859375 5.04882812 C-15.57297399 5.03713158 -18.28645761 5.02074086 -21 5 C-21 4.67 -21 4.34 -21 4 C-10.605 3.505 -10.605 3.505 0 3 C0 2.01 0 1.02 0 0 Z " fill="#6F6F6F" transform="translate(117,65)"/>
<path d="M0 0 C-0.99 0.33 -1.98 0.66 -3 1 C-3.33 1.99 -3.66 2.98 -4 4 C-6.21484375 5.5703125 -6.21484375 5.5703125 -8.9375 7.125 C-9.83339844 7.64320312 -10.72929687 8.16140625 -11.65234375 8.6953125 C-13.08606528 9.49208952 -14.53291826 10.26645913 -16 11 C-15.1875 8.5625 -15.1875 8.5625 -14 6 C-13.01 5.67 -12.02 5.34 -11 5 C-11 4.34 -11 3.68 -11 3 C-9.73581754 2.30034557 -8.46334598 1.61565237 -7.1875 0.9375 C-6.47980469 0.55464844 -5.77210938 0.17179687 -5.04296875 -0.22265625 C-3 -1 -3 -1 0 0 Z " fill="#686868" transform="translate(171,113)"/>
<path d="M0 0 C0.99 0 1.98 0 3 0 C3 3.63 3 7.26 3 11 C0.525 10.01 0.525 10.01 -2 9 C-2 8.34 -2 7.68 -2 7 C-2.99 6.67 -3.98 6.34 -5 6 C-4.360625 5.7525 -3.72125 5.505 -3.0625 5.25 C-0.81258459 4.18437567 -0.81258459 4.18437567 -0.25 1.875 C-0.1675 1.25625 -0.085 0.6375 0 0 Z " fill="#636363" transform="translate(186,115)"/>
<path d="M0 0 C1.65 0 3.3 0 5 0 C5 2.31 5 4.62 5 7 C2.03 6.67 -0.94 6.34 -4 6 C-3.67 5.34 -3.34 4.68 -3 4 C-2.34 4 -1.68 4 -1 4 C-0.67 2.68 -0.34 1.36 0 0 Z " fill="#606060" transform="translate(310,124)"/>
<path d="M0 0 C0.66 0.33 1.32 0.66 2 1 C2 3.64 2 6.28 2 9 C-2.455 7.02 -2.455 7.02 -7 5 C-4 3 -4 3 -1 2 C-0.67 1.34 -0.34 0.68 0 0 Z " fill="#5E5E5E" transform="translate(239,207)"/>
<path d="M0 0 C-3 2 -3 2 -5.48046875 1.7578125 C-6.37378906 1.54898438 -7.26710937 1.34015625 -8.1875 1.125 C-9.08855469 0.92132813 -9.98960937 0.71765625 -10.91796875 0.5078125 C-11.60503906 0.34023437 -12.29210937 0.17265625 -13 0 C-13 0.66 -13 1.32 -13 2 C-15.3125 2.625 -15.3125 2.625 -18 3 C-18.99 2.34 -19.98 1.68 -21 1 C-14.63235932 -2.39607503 -6.83946671 -1.43988773 0 0 Z " fill="#656565" transform="translate(237,204)"/>
<path d="M0 0 C-1.25 1.5 -1.25 1.5 -3 3 C-4.32 3 -5.64 3 -7 3 C-7 8.28 -7 13.56 -7 19 C-7.66 19 -8.32 19 -9 19 C-9 13.06 -9 7.12 -9 1 C-6.04335481 -0.4783226 -3.25770263 -0.06032783 0 0 Z " fill="#DFDFDF" transform="translate(275,131)"/>
<path d="M0 0 C2.97 0.495 2.97 0.495 6 1 C6 1.66 6 2.32 6 3 C5.01 3.495 5.01 3.495 4 4 C4 4.99 4 5.98 4 7 C2.68 7.33 1.36 7.66 0 8 C-1.125 2.25 -1.125 2.25 0 0 Z " fill="#525252" transform="translate(216,218)"/>
<path d="M0 0 C1.62723299 0.45034123 3.25173664 0.91055354 4.875 1.375 C5.77992188 1.63023438 6.68484375 1.88546875 7.6171875 2.1484375 C10 3 10 3 12 5 C11.01 5.33 10.02 5.66 9 6 C8.67 5.67 8.34 5.34 8 5 C8 5.33 8 5.66 8 6 C6.35 6 4.7 6 3 6 C2.01 4.02 1.02 2.04 0 0 Z " fill="#656565" transform="translate(222,17)"/>
<path d="M0 0 C-0.33 1.32 -0.66 2.64 -1 4 C-4.63 4 -8.26 4 -12 4 C-4 -2 -4 -2 0 0 Z " fill="#E7E7E7" transform="translate(214,396)"/>
<path d="M0 0 C0.99 0 1.98 0 3 0 C1.92544498 3.22366505 1.29693158 3.82638112 -1.25 5.875 C-4.35653285 8.43708895 -7.19644704 11.11149088 -10 14 C-10.66 13.67 -11.32 13.34 -12 13 C-11.30132812 12.31292969 -10.60265625 11.62585938 -9.8828125 10.91796875 C-8.97273438 10.01691406 -8.06265625 9.11585938 -7.125 8.1875 C-6.22007812 7.29417969 -5.31515625 6.40085937 -4.3828125 5.48046875 C-1.90168486 3.04361667 -1.90168486 3.04361667 0 0 Z " fill="#E6E6E6" transform="translate(305,325)"/>
<path d="M0 0 C-0.9375 2.0625 -0.9375 2.0625 -3 4 C-6.07110598 4.05989746 -8.99011728 3.58052245 -12 3 C-8.41728793 -0.86309824 -5.06500268 -1.68833423 0 0 Z " fill="#646464" transform="translate(343,58)"/>
<path d="M0 0 C0.66 0.33 1.32 0.66 2 1 C0.87548273 3.9719385 -0.22293791 6.33440687 -2 9 C-4.625 9.1875 -4.625 9.1875 -7 9 C-6.57847656 8.51789063 -6.15695312 8.03578125 -5.72265625 7.5390625 C-5.17480469 6.90742188 -4.62695312 6.27578125 -4.0625 5.625 C-3.51722656 4.99851562 -2.97195313 4.37203125 -2.41015625 3.7265625 C-0.93041376 2.04367666 -0.93041376 2.04367666 0 0 Z " fill="#646464" transform="translate(270,310)"/>
<path d="M0 0 C-0.639375 0.103125 -1.27875 0.20625 -1.9375 0.3125 C-2.618125 0.539375 -3.29875 0.76625 -4 1 C-4.33 1.99 -4.66 2.98 -5 4 C-11.435 4.495 -11.435 4.495 -18 5 C-14.81886649 2.87924433 -12.07995044 1.93982824 -8.4375 0.8125 C-7.28121094 0.44769531 -6.12492188 0.08289063 -4.93359375 -0.29296875 C-2 -1 -2 -1 0 0 Z " fill="#7B7B7B" transform="translate(154,26)"/>
<path d="M0 0 C-0.33 1.32 -0.66 2.64 -1 4 C-3.64 4.33 -6.28 4.66 -9 5 C-8.625 3.0625 -8.625 3.0625 -8 1 C-5.29120665 -0.35439668 -2.99066732 -0.06501451 0 0 Z " fill="#525252" transform="translate(182,150)"/>
<path d="M0 0 C0.125 3.375 0.125 3.375 0 7 C-0.66 7.66 -1.32 8.32 -2 9 C-3.32 7.35 -4.64 5.7 -6 4 C-1.125 0 -1.125 0 0 0 Z " fill="#535353" transform="translate(189,145)"/>
<path d="M0 0 C0.99 0.33 1.98 0.66 3 1 C2.34 3.97 1.68 6.94 1 10 C1.804375 10.12375 2.60875 10.2475 3.4375 10.375 C4.283125 10.58125 5.12875 10.7875 6 11 C6.33 11.66 6.66 12.32 7 13 C4.69 12.34 2.38 11.68 0 11 C0 7.37 0 3.74 0 0 Z " fill="#6D6D6D" transform="translate(208,235)"/>
<path d="M0 0 C0 1.65 0 3.3 0 5 C-1.65 5.33 -3.3 5.66 -5 6 C-5.66 5.01 -6.32 4.02 -7 3 C-2.25 0 -2.25 0 0 0 Z " fill="#525252" transform="translate(186,115)"/>
<path d="M0 0 C0.99 0.33 1.98 0.66 3 1 C3 1.66 3 2.32 3 3 C3.33 3.99 3.66 4.98 4 6 C2.35 6.33 0.7 6.66 -1 7 C-0.67 4.69 -0.34 2.38 0 0 Z " fill="#525252" transform="translate(211,210)"/>
<path d="M0 0 C1.57359759 4.72079276 0.52260317 7.89208127 -1.5625 12.3125 C-2.2740625 13.6428125 -2.2740625 13.6428125 -3 15 C-3.66 15 -4.32 15 -5 15 C-3.33333333 10 -1.66666667 5 0 0 Z " fill="#808080" transform="translate(337,197)"/>
<path d="M0 0 C0.66 0.33 1.32 0.66 2 1 C2 1.99 2 2.98 2 4 C-0.8125 5.125 -0.8125 5.125 -4 6 C-4.99 5.34 -5.98 4.68 -7 4 C-6.030625 3.525625 -5.06125 3.05125 -4.0625 2.5625 C-1.19522563 1.29806053 -1.19522563 1.29806053 0 0 Z " fill="#676767" transform="translate(217,353)"/>
<path d="M0 0 C2.64 0.33 5.28 0.66 8 1 C7.01 1.495 7.01 1.495 6 2 C6 2.66 6 3.32 6 4 C4.02 4 2.04 4 0 4 C0 2.68 0 1.36 0 0 Z " fill="#535353" transform="translate(219,226)"/>
<path d="M0 0 C3.3 0 6.6 0 10 0 C9.67 1.65 9.34 3.3 9 5 C8.608125 4.525625 8.21625 4.05125 7.8125 3.5625 C5.59191626 1.64820367 3.86624291 1.38733012 1 1 C1 1.66 1 2.32 1 3 C0.34 2.67 -0.32 2.34 -1 2 C-0.67 1.34 -0.34 0.68 0 0 Z " fill="#636363" transform="translate(241,124)"/>
<path d="M0 0 C1.32 0.33 2.64 0.66 4 1 C0.535 3.97 0.535 3.97 -3 7 C-3.1875 4.625 -3.1875 4.625 -3 2 C-2.01 1.34 -1.02 0.68 0 0 Z " fill="#666666" transform="translate(300,327)"/>
<path d="M0 0 C0.99 0.33 1.98 0.66 3 1 C1.5361389 5.39158329 -0.97831338 5.87947433 -5 8 C-4.1875 5.5625 -4.1875 5.5625 -3 3 C-2.01 2.67 -1.02 2.34 0 2 C0 1.34 0 0.68 0 0 Z " fill="#707070" transform="translate(160,116)"/>
<path d="M0 0 C2.475 0.495 2.475 0.495 5 1 C5 1.66 5 2.32 5 3 C7.97 3.495 7.97 3.495 11 4 C10.01 4.66 9.02 5.32 8 6 C8 5.34 8 4.68 8 4 C7.21625 4.20625 6.4325 4.4125 5.625 4.625 C4.75875 4.74875 3.8925 4.8725 3 5 C1 3 1 3 0 0 Z " fill="#727272" transform="translate(205,10)"/>
<path d="M0 0 C1.20628008 2.33214148 2.1654738 4.49642139 3 7 C2.01 8.485 2.01 8.485 1 10 C0.34 9.34 -0.32 8.68 -1 8 C-0.96712417 5.27130593 -0.43602229 2.7033382 0 0 Z " fill="#606060" transform="translate(234,158)"/>
<path d="M0 0 C2 0.6875 2 0.6875 4 2.6875 C1.36 3.0175 -1.28 3.3475 -4 3.6875 C-4 2.6975 -4 1.7075 -4 0.6875 C-2 -0.3125 -2 -0.3125 0 0 Z " fill="#616161" transform="translate(156,58.3125)"/>
<path d="M0 0 C1.8125 0.1875 1.8125 0.1875 4 1 C5.75 3.5625 5.75 3.5625 7 6 C2.32307692 4.52307692 2.32307692 4.52307692 0.6875 1.875 C0.460625 1.25625 0.23375 0.6375 0 0 Z " fill="#696969" transform="translate(144,369)"/>
<path d="M0 0 C0.33 0.99 0.66 1.98 1 3 C-0.59825639 6.19651277 -2.44988427 8.53584323 -5 11 C-4.54917531 9.53932801 -4.08906463 8.08151968 -3.625 6.625 C-3.36976563 5.81289062 -3.11453125 5.00078125 -2.8515625 4.1640625 C-2 2 -2 2 0 0 Z " fill="#727272" transform="translate(176,218)"/>
<path d="M0 0 C2.45823172 3.68734758 3.01242616 6.69699971 4 11 C2.68 10.34 1.36 9.68 0 9 C0 6.03 0 3.06 0 0 Z " fill="#818181" transform="translate(61,194)"/>
<path d="M0 0 C7.75 0.75 7.75 0.75 10 3 C6.91726015 3.99088067 5.08275109 3.92482533 2 3 C1.34 3 0.68 3 0 3 C0 2.01 0 1.02 0 0 Z " fill="#6C6C6C" transform="translate(64,26)"/>
<path d="M0 0 C1.125 3.75 1.125 3.75 0 6 C-0.66 6 -1.32 6 -2 6 C-2.33 6.66 -2.66 7.32 -3 8 C-3.75 6.25 -3.75 6.25 -4 4 C-2.0625 1.75 -2.0625 1.75 0 0 Z " fill="#707070" transform="translate(351,254)"/>
<path d="M0 0 C0.625 3.375 0.625 3.375 1 7 C0.34 7.66 -0.32 8.32 -1 9 C-2.25664978 6.09399739 -3 4.20395416 -3 1 C-1 0 -1 0 0 0 Z " fill="#666666" transform="translate(190,220)"/>
<path d="M0 0 C2.475 0.99 2.475 0.99 5 2 C3.35 3.65 1.7 5.3 0 7 C0 4.69 0 2.38 0 0 Z " fill="#646464" transform="translate(0,0)"/>
<path d="M0 0 C0.66 0 1.32 0 2 0 C3.625 2 3.625 2 5 4 C4.34 5.32 3.68 6.64 3 8 C0 2.25 0 2.25 0 0 Z " fill="#5D5D5D" transform="translate(48,254)"/>
</svg>
