<svg id="svg" version="1.1" xmlns="http://www.w3.org/2000/svg" xmlns:xlink="http://www.w3.org/1999/xlink" width="400" height="400" viewBox="0, 0, 400,400"><g id="svgg"><path id="path0" d="M173.368 65.174 C 173.286 65.256,172.178 65.391,170.906 65.474 C 169.634 65.557,167.961 65.710,167.188 65.813 C 166.414 65.917,165.289 66.060,164.688 66.132 C 163.650 66.256,161.076 66.693,159.375 67.034 C 158.945 67.120,157.820 67.325,156.875 67.490 C 155.193 67.783,154.388 67.942,152.813 68.295 C 152.383 68.391,151.680 68.538,151.250 68.621 C 150.820 68.704,149.836 68.965,149.063 69.202 C 148.289 69.438,147.234 69.737,146.719 69.865 C 143.200 70.739,141.355 71.286,136.872 72.783 C 134.288 73.646,131.720 74.546,131.165 74.783 C 130.610 75.020,127.555 76.224,124.375 77.460 C 121.195 78.695,118.031 79.974,117.344 80.302 C 116.656 80.630,115.391 81.195,114.531 81.557 C 113.672 81.919,112.195 82.572,111.250 83.008 C 108.217 84.407,107.670 84.641,106.953 84.843 C 106.566 84.953,106.250 85.197,106.250 85.386 C 106.250 85.575,106.160 85.640,106.051 85.530 C 105.941 85.421,105.463 85.608,104.987 85.947 C 104.511 86.285,103.948 86.563,103.735 86.563 C 103.238 86.563,95.855 90.368,95.552 90.781 C 95.425 90.953,95.320 90.979,95.317 90.838 C 95.315 90.697,94.904 90.873,94.405 91.229 C 93.906 91.584,93.343 91.875,93.155 91.875 C 92.967 91.875,92.813 91.987,92.813 92.125 C 92.813 92.262,92.322 92.552,91.722 92.769 C 91.122 92.986,89.959 93.615,89.138 94.168 C 88.318 94.720,87.086 95.436,86.401 95.758 C 85.716 96.081,84.348 96.851,83.360 97.469 C 82.372 98.088,80.638 99.156,79.508 99.844 C 78.377 100.531,77.055 101.410,76.571 101.797 C 76.087 102.184,75.536 102.500,75.346 102.500 C 75.155 102.500,75.000 102.631,75.000 102.791 C 75.000 102.952,74.720 103.172,74.377 103.281 C 74.034 103.389,73.577 103.648,73.361 103.856 C 73.145 104.063,72.125 104.786,71.094 105.463 C 70.063 106.139,69.078 106.811,68.906 106.955 C 68.734 107.099,67.820 107.781,66.875 108.470 C 65.930 109.158,64.945 109.892,64.688 110.100 C 64.430 110.308,63.727 110.820,63.125 111.239 C 62.523 111.658,61.961 112.086,61.875 112.189 C 61.789 112.293,59.891 113.842,57.656 115.631 C 51.090 120.890,41.141 130.644,38.507 134.404 C 38.232 134.797,37.749 135.376,37.434 135.691 C 35.845 137.280,31.202 143.973,28.412 148.695 C 27.632 150.016,24.994 154.980,24.983 155.149 C 24.971 155.323,24.207 157.201,23.582 158.594 C 23.086 159.697,21.446 164.614,20.976 166.406 C 19.232 173.050,19.918 181.329,22.721 187.500 C 23.151 188.445,23.553 189.479,23.614 189.798 C 23.676 190.116,23.853 190.538,24.007 190.735 C 24.161 190.932,24.891 192.219,25.630 193.594 C 26.995 196.136,28.549 198.573,29.282 199.319 C 29.505 199.546,29.688 199.828,29.689 199.944 C 29.690 200.061,30.089 200.582,30.577 201.102 C 31.065 201.623,31.521 202.201,31.591 202.387 C 32.174 203.937,41.451 213.319,46.689 217.656 C 47.519 218.344,48.515 219.188,48.902 219.531 C 49.290 219.875,50.001 220.438,50.483 220.781 C 50.965 221.125,51.581 221.625,51.852 221.891 C 52.589 222.618,59.926 228.125,60.157 228.125 C 60.267 228.125,60.553 228.301,60.793 228.516 C 61.616 229.254,62.036 229.560,63.906 230.788 C 64.938 231.465,65.828 232.127,65.885 232.259 C 65.943 232.392,66.177 232.500,66.406 232.500 C 66.635 232.500,66.870 232.618,66.927 232.761 C 66.984 232.905,67.805 233.532,68.750 234.156 C 70.558 235.348,71.989 236.350,76.094 239.298 C 77.469 240.286,79.227 241.516,80.000 242.031 C 80.773 242.547,81.566 243.109,81.762 243.281 C 81.958 243.453,82.506 243.875,82.979 244.219 C 84.883 245.600,85.625 246.153,87.383 247.500 C 90.645 249.999,90.564 249.862,89.174 250.549 C 87.538 251.359,81.524 254.535,79.219 255.807 C 78.188 256.376,76.690 257.196,75.891 257.629 C 75.092 258.062,73.826 258.826,73.078 259.327 C 72.331 259.828,70.980 260.634,70.078 261.118 C 69.176 261.602,68.438 262.119,68.437 262.267 C 68.437 262.416,68.297 262.450,68.125 262.344 C 67.953 262.238,67.813 262.300,67.813 262.482 C 67.813 262.664,67.676 262.813,67.509 262.813 C 67.341 262.813,65.925 263.691,64.361 264.766 C 62.798 265.840,61.238 266.877,60.896 267.070 C 60.554 267.262,59.942 267.709,59.536 268.062 C 59.130 268.415,58.400 268.959,57.915 269.272 C 56.853 269.953,57.224 269.668,52.813 273.199 C 49.236 276.061,42.070 282.962,40.610 284.949 C 40.188 285.522,39.698 286.155,39.520 286.355 C 38.897 287.055,37.188 289.721,37.188 289.993 C 37.188 290.144,37.010 290.454,36.792 290.681 C 36.575 290.908,36.060 291.797,35.648 292.656 C 35.236 293.516,34.703 294.605,34.463 295.078 C 34.223 295.551,34.123 295.938,34.239 295.938 C 34.356 295.938,34.259 296.170,34.023 296.454 C 33.787 296.739,33.611 297.055,33.632 297.157 C 33.653 297.260,33.631 297.484,33.582 297.656 C 33.533 297.828,33.404 298.320,33.295 298.750 C 33.186 299.180,32.882 300.305,32.620 301.250 C 31.761 304.353,31.367 312.205,31.922 315.156 C 32.276 317.036,33.246 320.174,33.685 320.859 C 33.932 321.246,34.065 321.563,33.979 321.563 C 33.894 321.563,34.223 322.301,34.710 323.203 C 35.197 324.105,35.828 325.298,36.112 325.853 C 37.581 328.727,42.755 332.712,45.809 333.322 C 46.481 333.456,47.102 333.583,47.188 333.604 C 47.273 333.625,47.836 333.737,48.438 333.852 C 49.039 333.968,49.953 334.154,50.469 334.266 C 51.996 334.597,63.934 334.681,65.026 334.368 C 65.579 334.209,66.679 334.005,67.470 333.915 C 68.262 333.824,69.401 333.601,70.002 333.419 C 70.602 333.238,71.437 333.019,71.858 332.934 C 72.926 332.716,76.221 331.615,77.344 331.100 C 77.859 330.863,78.422 330.649,78.594 330.625 C 78.766 330.600,79.328 330.324,79.844 330.013 C 80.359 329.701,81.109 329.347,81.511 329.225 C 83.082 328.748,91.001 323.829,92.031 322.689 C 92.203 322.499,92.838 321.975,93.442 321.525 C 94.665 320.612,99.671 315.671,101.036 314.027 C 103.457 311.114,104.018 310.386,105.391 308.375 C 106.207 307.180,106.875 306.001,106.875 305.757 C 106.875 305.513,107.004 305.313,107.162 305.313 C 107.319 305.313,107.690 304.680,107.985 303.906 C 108.281 303.133,108.644 302.500,108.792 302.500 C 108.941 302.500,109.063 302.336,109.062 302.136 C 109.062 301.936,109.555 300.735,110.156 299.468 C 110.758 298.201,111.250 296.949,111.250 296.686 C 111.250 296.424,111.411 295.908,111.608 295.541 C 111.804 295.173,112.166 294.163,112.411 293.296 C 113.579 289.160,114.023 287.357,113.903 287.236 C 113.831 287.164,113.891 286.878,114.036 286.600 C 114.285 286.122,114.438 285.042,114.991 279.844 C 115.404 275.960,115.110 267.307,114.470 264.531 C 114.391 264.188,114.279 263.625,114.222 263.281 C 114.166 262.938,114.030 262.234,113.920 261.719 C 113.811 261.203,113.653 260.430,113.568 260.000 C 113.323 258.755,111.487 253.660,111.014 252.913 C 110.614 252.282,113.051 250.000,114.125 250.000 C 114.250 250.000,115.447 249.332,116.784 248.516 C 120.222 246.417,120.416 246.301,120.918 246.050 C 121.165 245.926,122.712 245.056,124.356 244.114 C 129.937 240.918,130.529 240.689,130.037 241.913 C 129.767 242.585,129.358 243.659,129.219 244.063 C 129.189 244.148,129.083 244.430,128.984 244.688 C 128.753 245.285,127.491 250.878,127.359 251.891 C 127.304 252.312,127.115 253.289,126.939 254.063 C 126.763 254.836,126.519 256.383,126.398 257.500 C 126.277 258.617,126.121 259.813,126.053 260.156 C 125.752 261.673,125.691 271.598,125.971 273.438 C 126.469 276.699,126.700 278.043,127.046 279.688 C 127.274 280.768,128.737 285.611,129.124 286.563 C 129.971 288.648,130.278 289.357,131.088 291.094 C 134.698 298.833,138.613 301.861,145.022 301.871 C 150.196 301.879,153.467 299.838,157.035 294.375 C 158.615 291.957,161.250 286.942,161.250 286.354 C 161.250 286.125,161.391 285.938,161.563 285.938 C 161.734 285.938,161.875 285.794,161.875 285.619 C 161.875 285.444,162.588 283.792,163.460 281.947 C 164.332 280.103,165.167 278.313,165.315 277.969 C 165.463 277.625,165.898 276.641,166.280 275.781 C 166.663 274.922,166.998 274.148,167.026 274.063 C 167.053 273.977,167.261 273.484,167.488 272.969 C 167.715 272.453,168.098 271.574,168.340 271.016 C 168.582 270.457,168.851 270.000,168.939 270.000 C 169.027 270.000,169.018 270.132,168.918 270.294 C 168.061 271.680,168.156 284.132,169.048 287.447 C 169.218 288.078,169.362 288.699,169.368 288.827 C 169.394 289.364,170.452 291.737,170.760 291.948 C 170.943 292.075,170.990 292.180,170.862 292.183 C 170.631 292.188,170.941 292.612,172.621 294.587 C 175.852 298.388,181.635 297.685,186.457 292.906 C 188.845 290.538,190.938 288.033,190.938 287.541 C 190.938 287.364,191.127 287.106,191.359 286.969 C 191.763 286.730,194.861 281.532,196.165 278.906 C 196.756 277.716,199.188 273.224,200.141 271.563 C 200.387 271.133,201.402 269.164,202.395 267.188 C 203.388 265.211,204.581 262.938,205.045 262.137 C 205.509 261.336,205.826 260.618,205.749 260.541 C 205.673 260.464,205.824 260.224,206.086 260.006 C 206.348 259.789,206.563 259.359,206.563 259.050 C 206.562 258.742,206.668 258.443,206.797 258.385 C 207.177 258.217,215.313 241.341,215.313 240.723 C 215.313 240.582,215.875 239.306,216.563 237.889 C 217.250 236.472,217.813 235.129,217.813 234.906 C 217.813 234.683,217.936 234.366,218.086 234.203 C 218.236 234.040,218.738 232.922,219.202 231.719 C 219.665 230.516,220.235 229.109,220.468 228.594 C 221.815 225.618,223.039 222.499,222.862 222.495 C 222.749 222.493,222.804 222.387,222.984 222.261 C 223.164 222.135,223.487 221.430,223.702 220.694 C 224.155 219.144,224.567 219.178,224.627 220.771 C 224.650 221.381,224.818 222.161,225.002 222.503 C 225.185 222.845,225.277 223.125,225.207 223.125 C 225.137 223.125,225.347 224.215,225.674 225.547 C 226.427 228.617,226.504 228.906,226.564 228.906 C 226.592 228.906,226.678 229.297,226.756 229.774 C 227.137 232.097,229.860 239.093,232.195 243.750 C 235.353 250.049,235.182 249.423,234.163 250.956 C 233.678 251.685,233.141 252.503,232.969 252.774 C 232.797 253.045,232.500 253.411,232.309 253.587 C 232.118 253.762,231.485 254.582,230.903 255.408 C 228.967 258.152,228.462 258.810,227.273 260.132 C 225.397 262.220,223.306 264.735,222.994 265.280 C 222.836 265.556,222.484 265.992,222.212 266.250 C 221.650 266.784,219.975 268.730,218.594 270.455 C 218.078 271.099,217.445 271.861,217.188 272.150 C 216.607 272.799,213.987 275.981,213.683 276.406 C 213.560 276.578,213.056 277.211,212.564 277.813 C 212.071 278.414,211.578 279.152,211.469 279.453 C 211.359 279.754,211.137 280.000,210.975 280.000 C 210.716 280.000,209.362 282.450,209.162 283.281 C 209.121 283.453,208.956 284.121,208.795 284.766 C 207.742 288.996,213.018 292.860,218.728 292.041 C 219.342 291.953,220.617 291.814,221.563 291.733 C 223.519 291.566,229.649 290.375,230.142 290.066 C 230.322 289.954,230.739 289.820,231.069 289.768 C 231.399 289.717,231.857 289.520,232.085 289.331 C 232.313 289.141,232.500 289.081,232.500 289.198 C 232.500 289.315,232.813 289.192,233.195 288.924 C 233.577 288.656,234.094 288.438,234.345 288.438 C 234.838 288.438,239.875 285.976,241.406 284.987 C 241.922 284.654,242.555 284.284,242.813 284.164 C 246.002 282.682,253.122 274.676,253.563 272.078 C 253.596 271.880,253.779 271.437,253.970 271.092 C 255.282 268.713,256.014 260.080,255.231 256.227 C 254.358 251.933,254.325 251.826,251.983 245.497 C 251.732 244.819,251.655 244.193,251.809 244.091 C 252.452 243.664,261.006 230.313,262.439 227.500 C 263.026 226.348,263.573 225.434,263.963 224.955 C 264.540 224.246,268.232 217.401,270.849 212.188 C 271.927 210.039,272.821 208.352,272.835 208.438 C 272.849 208.523,272.905 208.805,272.961 209.063 C 273.016 209.320,273.300 210.788,273.592 212.324 C 273.883 213.859,274.247 215.445,274.400 215.847 C 274.553 216.250,274.742 216.933,274.821 217.365 C 274.899 217.798,275.186 218.918,275.459 219.855 C 275.731 220.792,275.951 221.629,275.948 221.716 C 275.943 221.855,276.255 222.742,277.050 224.844 C 277.180 225.188,277.264 225.574,277.237 225.703 C 277.210 225.832,277.328 225.937,277.500 225.938 C 277.672 225.938,277.790 226.043,277.762 226.172 C 277.691 226.503,279.297 230.358,280.009 231.563 C 280.571 232.515,281.896 235.443,282.060 236.096 C 282.179 236.572,281.979 236.991,281.376 237.525 C 279.624 239.078,273.244 245.514,272.263 246.719 C 270.985 248.289,270.893 248.413,270.243 249.425 C 269.950 249.882,269.354 250.641,268.918 251.111 C 268.482 251.581,268.125 252.096,268.125 252.254 C 268.125 252.412,267.773 253.003,267.344 253.566 C 266.914 254.129,266.563 254.753,266.563 254.951 C 266.563 255.150,266.439 255.313,266.288 255.313 C 266.138 255.313,265.700 256.051,265.316 256.953 C 264.932 257.855,264.296 259.297,263.904 260.156 C 263.512 261.016,263.020 262.492,262.812 263.438 C 262.604 264.383,262.299 265.414,262.136 265.728 C 261.496 266.959,261.450 272.246,262.061 274.305 C 263.761 280.030,270.049 281.856,277.344 278.742 C 277.859 278.522,278.486 278.301,278.737 278.251 C 279.250 278.150,279.613 277.993,282.551 276.607 C 283.697 276.067,284.724 275.625,284.834 275.625 C 284.943 275.625,286.003 274.992,287.188 274.219 C 288.372 273.445,289.431 272.813,289.540 272.813 C 289.649 272.813,290.391 272.285,291.188 271.641 C 291.986 270.996,292.994 270.188,293.428 269.844 C 295.316 268.353,299.895 263.282,300.625 261.875 C 300.849 261.445,301.132 261.023,301.255 260.938 C 301.497 260.768,303.229 256.865,303.587 255.682 C 304.159 253.789,304.381 249.660,304.026 247.500 C 303.871 246.555,303.681 245.318,303.604 244.752 C 303.399 243.256,302.203 239.117,301.627 237.908 C 301.118 236.841,301.296 236.307,302.225 236.119 C 302.462 236.071,302.867 235.941,303.125 235.830 C 303.888 235.502,308.840 234.032,309.688 233.882 C 310.117 233.806,310.820 233.657,311.250 233.551 C 311.680 233.445,312.383 233.320,312.813 233.273 C 313.242 233.225,314.508 233.039,315.625 232.860 C 321.488 231.919,330.607 231.803,334.844 232.616 C 335.188 232.682,336.734 232.900,338.281 233.100 C 339.828 233.300,341.727 233.614,342.500 233.797 C 344.185 234.196,349.028 235.578,349.688 235.848 C 349.945 235.953,350.227 236.066,350.313 236.098 C 352.223 236.815,353.079 237.202,355.310 238.356 C 356.770 239.112,358.413 240.072,358.962 240.490 C 359.510 240.908,360.036 241.250,360.132 241.250 C 361.709 241.250,367.993 248.874,369.761 252.932 C 372.291 258.740,372.416 264.674,370.098 269.042 C 368.245 272.536,363.761 277.037,360.781 278.394 C 358.823 279.286,358.693 281.614,360.576 282.086 C 361.469 282.310,366.368 280.767,366.935 280.083 C 367.116 279.866,367.397 279.688,367.560 279.688 C 370.149 279.688,377.873 270.258,378.650 266.149 C 378.753 265.603,378.975 264.982,379.141 264.770 C 379.308 264.557,379.365 264.175,379.267 263.920 C 379.170 263.666,379.209 263.384,379.354 263.294 C 380.023 262.881,379.601 253.385,378.819 251.250 C 378.725 250.992,378.618 250.676,378.582 250.547 C 378.545 250.418,378.488 250.277,378.453 250.234 C 378.419 250.191,378.328 249.814,378.251 249.396 C 378.174 248.977,377.814 247.993,377.450 247.208 C 377.086 246.423,376.499 245.148,376.144 244.375 C 374.313 240.379,369.162 234.131,365.066 230.938 C 364.515 230.508,363.677 229.840,363.204 229.453 C 362.731 229.066,361.922 228.533,361.406 228.268 C 360.891 228.004,359.906 227.436,359.219 227.006 C 358.103 226.309,355.631 225.088,353.906 224.382 C 353.563 224.241,352.789 223.922,352.188 223.672 C 350.200 222.848,349.229 222.518,348.365 222.374 C 347.895 222.295,347.401 222.163,347.268 222.081 C 347.050 221.946,344.062 221.270,340.781 220.613 C 338.247 220.106,334.407 219.848,329.688 219.868 C 322.831 219.898,319.157 220.298,312.969 221.691 C 312.797 221.730,312.164 221.866,311.563 221.994 C 310.961 222.122,310.117 222.342,309.688 222.483 C 309.258 222.624,308.273 222.922,307.500 223.145 C 306.727 223.368,305.953 223.647,305.781 223.764 C 305.609 223.882,305.117 224.055,304.688 224.147 C 303.492 224.406,299.216 226.103,298.062 226.777 L 297.035 227.377 294.259 221.892 C 291.614 216.666,290.734 214.676,290.450 213.281 C 290.380 212.938,290.248 212.305,290.156 211.875 C 289.791 210.164,289.675 209.468,289.508 207.969 C 289.412 207.109,289.260 206.195,289.170 205.938 C 288.572 204.232,289.297 192.656,290.002 192.656 C 290.030 192.656,290.099 192.375,290.156 192.031 C 290.432 190.377,290.743 189.295,291.772 186.425 C 292.384 184.717,292.908 183.170,292.936 182.988 C 292.964 182.805,293.072 182.516,293.176 182.344 C 294.011 180.969,292.975 179.422,290.313 178.070 C 286.084 175.922,271.570 178.021,270.753 180.898 C 270.453 181.955,270.477 181.886,270.057 182.899 C 269.859 183.376,269.635 184.079,269.561 184.461 C 269.486 184.844,269.205 185.764,268.937 186.508 C 268.668 187.251,268.364 188.517,268.261 189.320 C 267.998 191.370,267.240 193.971,266.424 195.625 C 266.042 196.398,265.711 197.172,265.689 197.344 C 265.615 197.928,264.544 200.154,264.131 200.585 C 263.904 200.820,263.638 201.418,263.539 201.913 C 263.440 202.408,263.236 202.813,263.086 202.813 C 262.936 202.813,262.813 203.066,262.813 203.375 C 262.813 203.684,262.686 204.071,262.531 204.234 C 262.376 204.398,261.693 205.586,261.012 206.875 C 257.393 213.731,256.740 214.947,256.063 216.094 C 255.657 216.781,255.227 217.555,255.107 217.813 C 254.987 218.070,254.571 218.793,254.181 219.419 C 253.792 220.044,253.539 220.622,253.619 220.702 C 253.699 220.783,253.551 221.026,253.289 221.244 C 253.027 221.461,252.811 221.798,252.808 221.991 C 252.806 222.185,252.103 223.391,251.246 224.671 C 250.389 225.951,249.688 227.182,249.688 227.406 C 249.688 227.629,249.582 227.813,249.452 227.813 C 249.323 227.813,248.585 229.008,247.813 230.469 C 246.065 233.774,246.308 233.851,244.122 229.297 C 242.146 225.181,241.695 223.769,241.101 219.844 C 240.996 219.156,240.814 217.961,240.695 217.188 C 240.233 214.186,240.520 207.474,241.238 204.531 C 241.614 202.984,241.987 201.390,242.066 200.988 C 242.145 200.585,242.422 199.671,242.681 198.956 C 242.940 198.241,243.225 197.305,243.315 196.875 C 243.404 196.445,243.742 195.496,244.065 194.766 C 244.388 194.035,244.573 193.438,244.475 193.438 C 244.378 193.438,244.434 193.262,244.600 193.047 C 246.532 190.548,240.021 187.123,234.914 187.950 C 234.360 188.040,232.781 188.191,231.406 188.286 C 225.240 188.711,222.652 189.923,221.897 192.739 C 221.724 193.381,221.152 195.523,220.624 197.500 C 219.624 201.247,218.385 204.905,217.657 206.261 C 217.423 206.697,216.955 207.752,216.618 208.605 C 216.280 209.458,215.637 210.957,215.189 211.935 C 214.377 213.705,213.682 215.328,213.607 215.625 C 213.585 215.711,213.325 216.237,213.027 216.794 C 212.730 217.350,212.498 217.843,212.511 217.887 C 212.544 218.002,211.282 220.983,210.926 221.631 C 210.764 221.927,209.572 224.599,208.277 227.569 C 206.982 230.539,205.686 233.391,205.397 233.906 C 205.109 234.422,204.915 234.844,204.968 234.844 C 205.057 234.844,204.023 237.242,202.879 239.688 C 202.598 240.289,202.350 240.852,202.328 240.938 C 202.306 241.023,201.975 241.797,201.592 242.656 C 200.869 244.279,200.516 245.042,198.562 249.204 C 197.921 250.570,197.396 251.871,197.396 252.094 C 197.396 252.317,197.279 252.500,197.135 252.500 C 196.992 252.500,196.875 252.712,196.875 252.971 C 196.875 253.230,196.529 254.109,196.106 254.924 C 195.270 256.535,193.010 261.309,192.965 261.563 C 192.941 261.694,190.963 265.623,187.617 272.188 C 187.223 272.961,186.556 274.016,186.136 274.531 L 185.371 275.469 185.145 274.264 C 185.020 273.602,185.002 271.633,185.104 269.889 C 185.296 266.622,185.338 266.330,186.113 262.844 C 186.365 261.710,186.709 260.008,186.878 259.063 C 187.316 256.609,187.450 255.963,187.656 255.312 C 187.757 254.996,187.899 254.480,187.973 254.166 C 188.047 253.851,188.261 253.031,188.449 252.344 C 188.638 251.656,188.911 250.602,189.057 250.000 C 189.202 249.398,189.411 248.555,189.521 248.125 C 189.630 247.695,189.790 246.992,189.876 246.563 C 189.962 246.133,190.308 244.883,190.644 243.785 C 190.981 242.687,191.331 241.363,191.423 240.843 C 191.515 240.322,191.654 239.792,191.733 239.664 C 191.812 239.536,192.361 237.556,192.952 235.263 C 193.544 232.970,194.176 230.602,194.358 230.002 C 195.537 226.098,192.605 222.584,187.950 222.323 C 186.795 222.258,185.694 222.303,185.503 222.422 C 185.312 222.541,184.965 222.668,184.732 222.703 C 184.498 222.738,183.997 223.059,183.618 223.415 C 182.631 224.342,182.490 224.232,182.744 222.734 C 183.567 217.877,182.866 210.169,181.316 207.049 C 180.638 205.684,177.809 202.813,177.142 202.813 C 176.823 202.813,176.563 202.687,176.563 202.534 C 176.563 202.277,176.235 202.157,174.063 201.622 C 172.632 201.269,168.164 201.534,166.336 202.079 C 165.343 202.375,164.350 202.649,164.128 202.689 C 163.414 202.816,158.985 205.033,158.525 205.493 C 158.280 205.737,157.971 205.938,157.837 205.937 C 157.472 205.937,153.829 208.379,151.542 210.156 C 147.919 212.972,141.367 219.789,139.375 222.815 C 139.289 222.946,138.656 223.370,137.969 223.759 C 135.400 225.210,131.032 227.602,129.219 228.550 C 128.188 229.090,127.273 229.602,127.188 229.688 C 127.008 229.867,123.835 231.547,121.094 232.913 C 120.063 233.427,119.148 233.931,119.063 234.033 C 118.977 234.135,118.414 234.473,117.813 234.785 C 117.211 235.096,115.875 235.826,114.844 236.406 C 113.813 236.987,112.547 237.677,112.031 237.939 C 111.516 238.201,110.531 238.749,109.844 239.158 C 103.782 242.761,104.147 242.746,100.765 239.514 C 96.159 235.111,91.884 231.317,90.926 230.781 C 90.619 230.609,89.866 230.012,89.254 229.453 C 88.642 228.895,88.068 228.437,87.977 228.438 C 87.887 228.438,87.560 228.191,87.252 227.891 C 86.944 227.590,86.295 227.063,85.811 226.719 C 85.327 226.375,84.771 225.946,84.575 225.766 C 84.096 225.326,78.680 221.215,77.802 220.625 C 77.419 220.367,76.807 219.854,76.443 219.484 C 76.079 219.114,74.797 218.075,73.594 217.175 C 71.041 215.265,69.049 213.629,67.807 212.422 C 67.321 211.949,66.862 211.563,66.788 211.563 C 66.654 211.563,65.868 210.832,61.695 206.833 C 59.248 204.489,58.669 203.844,56.246 200.776 C 53.908 197.816,53.096 196.655,52.208 195.000 C 51.793 194.227,51.302 193.490,51.117 193.364 C 50.932 193.238,50.893 193.132,51.029 193.130 C 51.165 193.127,50.905 192.492,50.452 191.719 C 49.999 190.945,49.729 190.313,49.852 190.313 C 49.976 190.313,49.932 190.137,49.755 189.922 C 49.475 189.581,48.426 186.369,48.380 185.709 C 48.370 185.577,48.236 185.135,48.081 184.728 C 47.862 184.151,47.426 179.493,47.419 177.656 C 47.418 177.151,47.877 172.391,47.982 171.825 C 48.035 171.540,48.178 170.642,48.300 169.829 C 48.422 169.016,48.934 167.211,49.438 165.816 C 49.942 164.422,50.394 163.141,50.442 162.969 C 52.468 155.716,63.310 141.936,73.438 133.741 C 74.383 132.976,75.730 131.856,76.432 131.253 C 78.510 129.466,79.053 129.063,79.379 129.063 C 79.548 129.063,79.688 128.952,79.688 128.817 C 79.688 128.683,80.074 128.343,80.547 128.063 C 81.020 127.783,81.828 127.191,82.344 126.746 C 82.859 126.302,83.377 125.938,83.493 125.938 C 83.610 125.938,83.891 125.759,84.118 125.540 C 84.345 125.321,85.375 124.589,86.406 123.912 C 87.438 123.236,88.422 122.563,88.594 122.417 C 89.150 121.944,93.241 119.332,94.688 118.525 C 95.461 118.094,96.164 117.641,96.250 117.518 C 96.336 117.395,97.180 116.884,98.125 116.382 C 99.070 115.879,99.891 115.363,99.948 115.234 C 100.005 115.105,100.163 115.000,100.298 115.000 C 100.434 115.000,101.934 114.206,103.632 113.235 C 105.330 112.264,107.141 111.255,107.656 110.993 C 108.172 110.732,108.697 110.366,108.823 110.181 C 108.950 109.995,109.055 109.965,109.058 110.114 C 109.060 110.263,109.446 110.133,109.915 109.826 C 110.819 109.233,123.978 102.634,126.094 101.712 C 126.781 101.412,127.906 100.912,128.594 100.600 C 130.885 99.561,139.830 96.044,140.781 95.809 C 141.297 95.681,142.141 95.397,142.656 95.177 C 143.520 94.808,149.439 92.828,150.156 92.668 C 150.744 92.536,152.346 92.138,156.092 91.193 C 158.154 90.673,160.219 90.200,160.682 90.141 C 161.145 90.083,162.059 89.892,162.715 89.719 C 163.370 89.545,164.398 89.318,165.000 89.215 C 165.602 89.112,166.658 88.902,167.348 88.748 C 168.038 88.594,169.374 88.390,170.317 88.296 C 171.260 88.201,172.383 88.061,172.813 87.984 C 178.783 86.922,193.685 86.893,199.219 87.934 C 199.563 87.998,200.477 88.155,201.250 88.281 C 203.912 88.717,206.500 89.338,207.261 89.724 C 207.560 89.876,207.985 90.000,208.206 90.000 C 209.698 90.000,216.340 93.127,218.989 95.078 C 221.928 97.241,226.319 102.800,225.903 103.829 C 225.885 103.872,226.028 104.487,226.219 105.198 C 227.256 109.050,227.085 115.071,225.789 120.313 C 225.725 120.570,225.652 120.781,225.626 120.781 C 225.600 120.781,225.523 121.072,225.456 121.428 C 225.389 121.784,225.119 122.487,224.856 122.991 C 224.594 123.494,224.378 124.084,224.377 124.301 C 224.376 124.518,224.246 124.940,224.088 125.239 C 223.930 125.537,223.205 127.047,222.478 128.594 C 221.751 130.141,221.055 131.477,220.932 131.563 C 220.809 131.648,220.418 132.281,220.063 132.969 C 219.457 134.143,216.945 137.775,215.711 139.263 C 215.406 139.631,214.805 140.387,214.375 140.943 C 213.572 141.982,213.190 142.399,209.646 146.111 C 206.430 149.478,202.484 152.869,198.134 156.000 C 197.012 156.808,195.924 157.617,195.716 157.797 C 195.509 157.977,195.248 158.125,195.136 158.125 C 195.025 158.125,194.421 158.528,193.795 159.021 C 193.169 159.513,192.340 160.015,191.953 160.136 C 191.566 160.256,191.250 160.476,191.250 160.625 C 191.250 160.774,190.945 160.992,190.572 161.111 C 190.199 161.229,189.134 161.812,188.205 162.406 C 187.277 163.000,186.105 163.629,185.602 163.805 C 185.099 163.980,184.688 164.251,184.688 164.406 C 184.688 164.561,184.541 164.688,184.362 164.688 C 184.183 164.688,183.163 165.096,182.096 165.595 C 181.029 166.093,180.047 166.509,179.914 166.517 C 179.780 166.525,179.007 166.887,178.195 167.320 C 176.409 168.273,167.955 171.425,166.313 171.750 C 165.918 171.829,164.951 172.111,164.165 172.378 C 162.005 173.111,158.107 174.123,156.875 174.270 C 156.273 174.342,154.375 174.687,152.656 175.036 C 150.938 175.385,149.039 175.728,148.438 175.797 C 146.783 175.986,144.659 176.274,143.438 176.474 C 140.442 176.965,130.022 176.559,126.719 175.823 C 123.958 175.207,119.458 173.933,119.141 173.677 C 118.926 173.503,118.750 173.437,118.750 173.529 C 118.750 174.538,111.211 169.619,107.738 166.343 C 105.145 163.898,104.583 163.687,103.457 164.736 C 102.677 165.463,102.646 168.708,103.411 169.474 C 103.598 169.660,103.750 170.054,103.750 170.349 C 103.750 170.644,103.855 170.932,103.984 170.990 C 104.113 171.047,104.555 171.719,104.966 172.482 C 105.881 174.182,108.668 177.294,111.250 179.498 C 112.093 180.218,115.282 182.500,115.445 182.500 C 115.532 182.500,116.256 182.914,117.054 183.420 C 117.852 183.926,118.912 184.429,119.409 184.539 C 119.906 184.648,120.313 184.845,120.313 184.976 C 120.313 185.328,126.774 187.441,128.594 187.684 C 129.453 187.799,130.374 188.005,130.640 188.142 C 130.907 188.280,132.172 188.477,133.453 188.580 C 134.734 188.683,136.192 188.850,136.693 188.951 C 137.937 189.202,150.959 189.184,153.627 188.928 C 154.812 188.814,156.414 188.665,157.188 188.596 C 157.961 188.528,159.294 188.395,160.150 188.301 C 161.922 188.107,171.476 186.303,172.188 186.029 C 172.445 185.929,173.032 185.810,173.492 185.763 C 174.265 185.684,176.795 184.964,181.875 183.378 C 182.992 183.029,184.047 182.720,184.219 182.691 C 184.391 182.662,184.672 182.559,184.844 182.461 C 185.016 182.364,185.828 182.102,186.649 181.880 C 187.470 181.658,188.216 181.355,188.308 181.207 C 188.399 181.059,188.668 180.938,188.904 180.938 C 189.141 180.938,189.730 180.774,190.214 180.575 C 190.698 180.375,191.199 180.234,191.328 180.262 C 191.457 180.290,191.563 180.148,191.563 179.948 C 191.563 179.747,191.651 179.672,191.760 179.781 C 191.868 179.889,192.255 179.814,192.619 179.613 C 192.983 179.413,193.441 179.222,193.637 179.188 C 193.832 179.155,194.957 178.661,196.137 178.091 C 197.316 177.520,198.375 177.049,198.490 177.042 C 198.604 177.036,198.794 176.936,198.910 176.819 C 199.027 176.702,199.918 176.222,200.890 175.752 C 201.861 175.282,203.598 174.287,204.749 173.542 C 205.900 172.797,206.990 172.188,207.171 172.188 C 207.352 172.188,207.500 172.047,207.500 171.875 C 207.500 171.703,207.711 171.563,207.969 171.563 C 208.227 171.563,208.438 171.422,208.438 171.250 C 208.438 171.078,208.578 170.938,208.749 170.938 C 209.156 170.938,212.270 168.730,212.594 168.213 C 212.731 167.993,213.048 167.813,213.297 167.813 C 213.546 167.813,213.750 167.702,213.750 167.567 C 213.750 167.433,214.137 167.089,214.609 166.803 C 215.082 166.518,216.063 165.749,216.788 165.095 C 217.514 164.441,218.896 163.203,219.860 162.344 C 223.145 159.413,227.334 155.091,229.219 152.689 C 229.734 152.031,230.530 151.052,230.987 150.512 C 232.195 149.085,234.019 146.506,234.343 145.768 C 234.497 145.418,234.848 144.943,235.124 144.715 C 235.399 144.486,235.625 144.105,235.625 143.868 C 235.625 143.631,235.749 143.438,235.901 143.438 C 236.053 143.438,236.258 143.191,236.356 142.891 C 236.455 142.590,236.889 141.781,237.321 141.094 C 237.752 140.406,238.460 139.131,238.893 138.259 C 239.326 137.387,239.787 136.567,239.918 136.436 C 240.049 136.305,240.156 136.103,240.156 135.988 C 240.156 135.872,240.532 135.005,240.991 134.060 C 241.723 132.554,242.513 130.781,242.661 130.313 C 242.688 130.227,242.801 129.945,242.912 129.688 C 243.271 128.856,245.294 122.450,245.266 122.237 C 245.251 122.124,245.273 121.926,245.315 121.797 C 245.474 121.307,245.792 119.570,246.130 117.344 C 246.208 116.828,246.332 116.195,246.405 115.938 C 246.750 114.722,246.867 107.369,246.578 105.000 C 245.982 100.095,245.897 99.570,245.615 99.044 C 245.461 98.755,245.407 98.447,245.496 98.358 C 245.585 98.269,245.154 96.879,244.538 95.270 C 242.960 91.149,243.006 91.245,241.674 89.237 C 241.011 88.238,240.298 87.123,240.090 86.758 C 239.556 85.823,236.949 82.880,235.494 81.571 C 234.821 80.965,233.987 80.152,233.641 79.766 C 233.295 79.379,232.827 79.063,232.600 79.063 C 232.373 79.063,232.188 78.939,232.188 78.788 C 232.188 78.637,231.027 77.757,229.609 76.832 C 226.068 74.523,226.040 74.507,223.750 73.416 C 222.633 72.883,221.205 72.188,220.578 71.870 C 219.950 71.552,219.353 71.377,219.250 71.479 C 219.147 71.582,219.063 71.494,219.063 71.284 C 219.063 71.073,218.932 70.982,218.772 71.080 C 218.612 71.179,218.404 71.137,218.311 70.985 C 218.218 70.834,217.470 70.529,216.649 70.307 C 215.828 70.085,215.016 69.804,214.844 69.682 C 214.561 69.482,213.043 69.046,212.659 69.055 C 212.572 69.057,211.974 68.852,211.329 68.601 C 210.684 68.350,209.805 68.079,209.375 67.999 C 208.063 67.756,205.513 67.219,204.688 67.012 C 202.594 66.487,198.007 65.754,194.688 65.413 C 192.495 65.188,173.566 64.975,173.368 65.174 M171.122 217.397 C 172.169 218.368,171.973 221.315,170.517 226.491 C 170.262 227.398,170.037 228.241,170.017 228.366 C 169.885 229.214,168.535 233.840,168.127 234.844 C 167.787 235.680,165.955 241.259,165.788 241.966 C 165.640 242.595,163.917 247.109,163.224 248.684 C 162.975 249.249,162.722 249.952,162.661 250.246 C 162.551 250.779,161.902 252.436,161.104 254.219 C 160.159 256.331,159.729 257.500,159.898 257.500 C 159.996 257.500,159.937 257.676,159.766 257.891 C 159.596 258.105,159.285 258.844,159.076 259.531 C 158.867 260.219,158.343 261.526,157.912 262.436 C 157.481 263.345,157.095 264.259,157.053 264.467 C 157.012 264.674,156.797 265.266,156.575 265.781 C 155.775 267.643,155.632 267.983,155.267 268.906 C 155.063 269.422,154.884 269.942,154.870 270.063 C 154.856 270.183,154.668 270.457,154.453 270.672 C 154.238 270.887,154.063 271.214,154.063 271.399 C 154.063 272.180,151.051 277.618,149.907 278.901 C 148.532 280.445,148.283 280.624,147.523 280.615 C 146.265 280.600,145.058 279.218,144.529 277.188 C 144.506 277.102,144.305 276.398,144.083 275.625 C 142.820 271.243,143.066 258.834,144.534 252.813 C 144.842 251.549,144.872 251.436,145.085 250.781 C 145.197 250.438,145.355 249.768,145.436 249.294 C 145.711 247.696,146.647 244.971,147.848 242.269 C 148.172 241.540,148.438 240.856,148.438 240.749 C 148.438 240.482,151.978 233.321,152.207 233.125 C 152.307 233.039,152.484 232.758,152.599 232.500 C 152.818 232.011,152.866 231.933,154.766 228.970 C 155.410 227.965,155.938 227.027,155.938 226.884 C 155.938 226.742,157.165 225.310,158.665 223.703 C 163.892 218.104,169.061 215.488,171.122 217.397 M287.298 250.727 C 287.412 253.073,286.864 256.806,286.162 258.467 C 285.249 260.626,284.221 262.672,283.757 263.249 C 280.999 266.685,274.019 271.162,273.004 270.146 C 271.614 268.757,276.482 256.798,280.186 252.500 C 282.724 249.556,284.027 248.133,285.125 247.108 L 286.382 245.934 286.788 247.264 C 287.012 247.995,287.241 249.554,287.298 250.727 M98.054 260.175 C 97.958 260.271,98.077 261.080,98.318 261.972 C 98.560 262.864,98.833 264.367,98.924 265.313 C 99.016 266.258,99.205 267.457,99.345 267.976 C 99.827 269.776,99.354 278.494,98.612 281.484 C 98.202 283.136,98.085 283.635,97.938 284.345 C 97.853 284.759,97.663 285.321,97.516 285.595 C 97.369 285.869,97.258 286.164,97.268 286.250 C 97.318 286.654,96.422 289.013,95.874 289.922 C 95.537 290.480,95.378 290.940,95.521 290.942 C 95.664 290.945,95.625 291.050,95.435 291.177 C 95.245 291.303,94.789 292.039,94.422 292.813 C 93.650 294.441,92.190 296.960,91.886 297.188 C 91.771 297.273,91.200 298.045,90.617 298.902 C 89.581 300.423,88.182 302.013,85.290 304.953 C 80.534 309.789,72.292 314.609,67.231 315.514 C 66.778 315.595,65.844 315.790,65.156 315.948 C 55.198 318.232,50.314 310.796,54.270 299.375 C 55.064 297.082,56.449 294.046,57.335 292.656 C 59.789 288.803,60.476 287.813,60.691 287.813 C 60.827 287.813,60.938 287.667,60.938 287.489 C 60.938 287.312,61.324 286.776,61.797 286.299 C 62.270 285.822,63.238 284.807,63.948 284.044 C 64.659 283.281,65.978 282.023,66.880 281.250 C 67.782 280.477,68.840 279.563,69.231 279.219 C 69.623 278.875,70.384 278.242,70.923 277.813 C 71.462 277.383,72.515 276.539,73.264 275.938 C 74.013 275.336,75.708 274.082,77.030 273.151 C 78.352 272.221,79.603 271.290,79.810 271.083 C 80.017 270.875,80.624 270.480,81.158 270.204 C 81.691 269.928,82.317 269.518,82.549 269.293 C 83.103 268.753,85.735 266.996,86.862 266.413 C 87.352 266.160,87.942 265.769,88.174 265.545 C 88.405 265.321,89.016 264.929,89.531 264.675 C 91.217 263.842,96.535 260.609,96.726 260.301 C 96.828 260.135,97.208 260.000,97.571 260.000 C 97.933 260.000,98.150 260.079,98.054 260.175 M238.918 262.266 C 238.849 262.480,238.720 263.359,238.630 264.219 C 238.424 266.198,238.253 266.970,237.862 267.699 C 237.691 268.019,237.255 268.889,236.894 269.632 C 235.133 273.252,230.978 277.562,226.102 280.827 C 224.890 281.639,221.835 282.877,221.607 282.649 C 221.460 282.502,223.564 279.865,224.992 278.407 C 226.995 276.362,232.416 270.262,233.066 269.320 C 233.342 268.921,233.715 268.441,233.893 268.255 C 234.072 268.068,234.500 267.530,234.844 267.058 C 235.188 266.586,235.794 265.824,236.192 265.365 C 236.590 264.907,237.335 263.934,237.848 263.203 C 238.789 261.863,239.147 261.549,238.918 262.266 " stroke="none" fill="#cc649c" fill-rule="evenodd"></path><path id="path1" d="M142.426 189.284 C 142.814 189.358,143.377 189.355,143.676 189.277 C 143.974 189.199,143.656 189.138,142.969 189.141 C 142.281 189.145,142.037 189.209,142.426 189.284 M325.391 232.090 C 325.691 232.169,326.184 232.169,326.484 232.090 C 326.785 232.012,326.539 231.948,325.938 231.948 C 325.336 231.948,325.090 232.012,325.391 232.090 " stroke="none" fill="#d0649c" fill-rule="evenodd"></path><path id="path2" d="M142.426 189.284 C 142.814 189.358,143.377 189.355,143.676 189.277 C 143.974 189.199,143.656 189.138,142.969 189.141 C 142.281 189.145,142.037 189.209,142.426 189.284 M325.391 232.090 C 325.691 232.169,326.184 232.169,326.484 232.090 C 326.785 232.012,326.539 231.948,325.938 231.948 C 325.336 231.948,325.090 232.012,325.391 232.090 " stroke="none" fill="#d0649c" fill-rule="evenodd"></path><path id="path3" d="M142.426 189.284 C 142.814 189.358,143.377 189.355,143.676 189.277 C 143.974 189.199,143.656 189.138,142.969 189.141 C 142.281 189.145,142.037 189.209,142.426 189.284 M325.391 232.090 C 325.691 232.169,326.184 232.169,326.484 232.090 C 326.785 232.012,326.539 231.948,325.938 231.948 C 325.336 231.948,325.090 232.012,325.391 232.090 " stroke="none" fill="#d0649c" fill-rule="evenodd"></path><path id="path4" d="M142.426 189.284 C 142.814 189.358,143.377 189.355,143.676 189.277 C 143.974 189.199,143.656 189.138,142.969 189.141 C 142.281 189.145,142.037 189.209,142.426 189.284 M325.391 232.090 C 325.691 232.169,326.184 232.169,326.484 232.090 C 326.785 232.012,326.539 231.948,325.938 231.948 C 325.336 231.948,325.090 232.012,325.391 232.090 " stroke="none" fill="#d0649c" fill-rule="evenodd"></path></g></svg>